<?xml version="1.0" encoding="iso-8859-1"?>
<!-- Generator: Adobe Illustrator 24.1.2, SVG Export Plug-In . SVG Version: 6.00 Build 0)  -->
<svg version="1.1" id="Layer_3" xmlns="http://www.w3.org/2000/svg" xmlns:xlink="http://www.w3.org/1999/xlink" x="0px" y="0px"
	 viewBox="0 0 48 48" style="enable-background:new 0 0 48 48;" xml:space="preserve">
<g>
	<linearGradient id="SVGID_1_" gradientUnits="userSpaceOnUse" x1="9.8581" y1="9.8581" x2="38.1419" y2="38.1419">
		<stop  offset="0" style="stop-color:#889097"/>
		<stop  offset="1" style="stop-color:#64717C"/>
	</linearGradient>
	<circle style="fill:url(#SVGID_1_);" cx="24" cy="24" r="20"/>
</g>
<radialGradient id="SVGID_2_" cx="24" cy="24" r="18.5" gradientUnits="userSpaceOnUse">
	<stop  offset="0" style="stop-color:#000000"/>
	<stop  offset="1" style="stop-color:#000000;stop-opacity:0"/>
</radialGradient>
<circle style="fill:url(#SVGID_2_);" cx="24" cy="24" r="18.5"/>
<g>
	<radialGradient id="SVGID_3_" cx="23.8897" cy="7.3943" r="37.8834" gradientUnits="userSpaceOnUse">
		<stop  offset="0" style="stop-color:#FAFAFB"/>
		<stop  offset="1" style="stop-color:#C8CDD1"/>
	</radialGradient>
	<circle style="fill:url(#SVGID_3_);" cx="24" cy="24" r="17"/>
</g>
<g>
	<linearGradient id="SVGID_4_" gradientUnits="userSpaceOnUse" x1="22.4791" y1="9.3615" x2="25.7193" y2="40.5484">
		<stop  offset="0" style="stop-color:#C8CDD1"/>
		<stop  offset="1" style="stop-color:#A6AAAD"/>
	</linearGradient>
	<path style="fill:url(#SVGID_4_);" d="M25,10c0,0.552-0.448,1-1,1s-1-0.448-1-1c0-0.552,0.448-1,1-1S25,9.448,25,10z M24,37
		c-0.552,0-1,0.448-1,1c0,0.552,0.448,1,1,1s1-0.448,1-1C25,37.448,24.552,37,24,37z M38,23c-0.552,0-1,0.448-1,1
		c0,0.552,0.448,1,1,1s1-0.448,1-1C39,23.448,38.552,23,38,23z M10,23c-0.552,0-1,0.448-1,1c0,0.552,0.448,1,1,1s1-0.448,1-1
		C11,23.448,10.552,23,10,23z"/>
</g>
<path style="fill:#D83B01;" d="M24,34.75c-0.414,0-0.75-0.336-0.75-0.75V24c0-0.414,0.336-0.75,0.75-0.75s0.75,0.336,0.75,0.75v10
	C24.75,34.414,24.414,34.75,24,34.75z"/>
<path style="fill:#45494D;" d="M24,24.75c-0.192,0-0.384-0.073-0.53-0.22c-0.293-0.293-0.293-0.768,0-1.061l8.485-8.485
	c0.293-0.293,0.768-0.293,1.061,0s0.293,0.768,0,1.061L24.53,24.53C24.384,24.677,24.192,24.75,24,24.75z"/>
<path style="fill:#45494D;" d="M23.999,25.25c-0.181,0-0.365-0.039-0.54-0.123l-7.787-3.735c-0.623-0.299-0.885-1.045-0.586-1.668
	c0.298-0.622,1.045-0.887,1.667-0.586l7.787,3.735c0.623,0.299,0.885,1.045,0.586,1.668C24.912,24.988,24.465,25.25,23.999,25.25z"
	/>
<circle style="fill:#1E2021;" cx="24" cy="24" r="2"/>
</svg>