<svg version="1.1" id="Layer_1" xmlns="http://www.w3.org/2000/svg" xmlns:xlink="http://www.w3.org/1999/xlink" x="0px" y="0px"
	 width="100%" viewBox="0 0 750 750" enable-background="new 0 0 750 750" xml:space="preserve">
<path fill="#FFFFFF" opacity="1.000000" stroke="none" 
	d="
M353.000000,751.000000 
	C235.333328,751.000000 118.166664,751.000000 1.000000,751.000000 
	C1.000000,501.000000 1.000000,251.000000 1.000000,1.000000 
	C251.000000,1.000000 501.000000,1.000000 751.000000,1.000000 
	C751.000000,251.000000 751.000000,501.000000 751.000000,751.000000 
	C618.500000,751.000000 486.000000,751.000000 353.000000,751.000000 
M659.684204,624.283020 
	C658.793762,622.327759 658.056274,620.284485 656.989868,618.430359 
	C640.470032,589.708435 623.918396,561.004761 607.352661,532.309204 
	C568.144348,464.391815 528.918213,396.484680 489.711334,328.566467 
	C453.417725,265.694946 417.141479,202.813400 380.837524,139.947861 
	C380.321899,139.055008 379.545593,138.312698 378.632782,137.179688 
	C373.812622,145.585358 369.283661,153.530411 364.710846,161.450150 
	C317.504181,243.208557 270.293793,324.964844 223.077652,406.717773 
	C187.852295,467.709106 152.596161,528.682678 117.404686,589.693542 
	C110.761391,601.210999 104.357773,612.866638 97.235588,624.973267 
	C96.859772,625.804443 96.483955,626.635620 96.051956,627.591003 
	C284.898163,627.591003 473.332001,627.591003 662.480408,627.591003 
	C661.332642,626.282471 660.709961,625.572510 659.684204,624.283020 
z"/>
<path fill="#8C53FD" opacity="1.000000" stroke="none" 
	d="
M97.843552,624.458557 
	C104.357773,612.866638 110.761391,601.210999 117.404686,589.693542 
	C152.596161,528.682678 187.852295,467.709106 223.077652,406.717773 
	C270.293793,324.964844 317.504181,243.208557 364.710846,161.450150 
	C369.283661,153.530411 373.812622,145.585358 378.632782,137.179688 
	C379.545593,138.312698 380.321899,139.055008 380.837524,139.947861 
	C417.141479,202.813400 453.417725,265.694946 489.711334,328.566467 
	C528.918213,396.484680 568.144348,464.391815 607.352661,532.309204 
	C623.918396,561.004761 640.470032,589.708435 656.989868,618.430359 
	C658.056274,620.284485 658.793762,622.327759 659.776367,624.977417 
	C657.888550,626.109009 655.908691,626.928223 653.928650,626.928894 
	C470.900024,626.987183 287.871399,626.983032 104.842773,626.981628 
	C103.344101,626.981628 101.751495,627.268616 100.378204,626.848267 
	C99.382774,626.543579 98.677948,625.289368 97.843552,624.458557 
M155.039825,588.114319 
	C155.039825,588.114319 155.243454,588.201599 154.546738,588.370544 
	C153.829559,589.979248 153.112381,591.588013 152.359161,593.276306 
	C152.359161,593.276306 152.339264,593.361389 151.949402,593.282043 
	C151.849838,593.364624 151.750275,593.447266 151.650711,593.529846 
	C151.872833,593.623901 152.094940,593.718018 152.634537,594.121216 
	C152.634537,594.121216 152.924835,594.455933 153.247391,595.125366 
	C155.165848,595.394836 157.084198,595.899048 159.002777,595.899963 
	C241.801376,595.939758 324.599976,595.935364 407.398590,595.935425 
	C470.372162,595.935486 533.345764,595.948120 596.319275,595.867432 
	C598.234741,595.864990 600.148926,594.882446 602.322754,594.040649 
	C602.322754,594.040649 602.629700,593.770813 603.029846,593.792542 
	C602.897888,593.651062 602.765930,593.509521 602.649841,593.320557 
	C602.649841,593.320557 602.668884,593.274353 602.627502,592.560730 
	C601.386536,590.718933 600.145630,588.877075 598.433594,586.549988 
	C555.671509,512.521057 512.926086,438.482483 470.123322,364.477051 
	C465.478241,356.445801 460.501923,348.606140 455.773865,340.691101 
	C455.773865,340.691101 455.746155,340.782562 455.607452,340.027039 
	C455.231995,339.116638 454.954529,338.149719 454.466949,337.303955 
	C433.113831,300.267273 411.747253,263.238342 390.368256,226.216599 
	C386.195374,218.990402 381.965485,211.797073 377.506683,204.150940 
	C376.205811,206.244583 375.291901,207.627502 374.464325,209.060303 
	C357.076416,239.164200 339.666077,269.255219 322.334778,299.391724 
	C315.791382,310.769714 309.435211,322.255341 302.611847,334.042877 
	C301.895691,334.951813 301.179535,335.860748 300.191193,337.576782 
	C277.011292,377.770233 253.857864,417.978973 230.642761,458.152069 
	C213.506790,487.805420 196.290344,517.412292 178.474197,547.311279 
	C175.991226,551.884644 173.508270,556.457947 170.997025,561.004272 
	C170.997025,561.004272 171.033325,561.015930 170.582703,561.265442 
	C170.480667,561.578979 170.378632,561.892578 170.105453,562.227844 
	C170.105453,562.227844 170.275818,562.255066 169.586075,562.373047 
	C167.739517,565.926575 165.892960,569.480103 164.000244,573.010010 
	C164.000244,573.010010 164.045227,573.043091 163.349426,573.144043 
	C162.243423,575.440796 161.137405,577.737488 160.000000,580.000000 
	C160.000000,580.000000 160.038315,580.026672 159.350723,580.126892 
	C158.339844,582.172607 157.328964,584.218384 156.133667,586.307861 
	C156.133667,586.307861 156.323227,586.309143 155.700607,586.437439 
	C155.552185,587.013489 155.403763,587.589539 155.039825,588.114319 
z"/>
<path fill="#855FD1" opacity="1.000000" stroke="none" 
	d="
M97.539566,624.715942 
	C98.677948,625.289368 99.382774,626.543579 100.378204,626.848267 
	C101.751495,627.268616 103.344101,626.981628 104.842773,626.981628 
	C287.871399,626.983032 470.900024,626.987183 653.928650,626.928894 
	C655.908691,626.928223 657.888550,626.109009 659.977905,625.267212 
	C660.709961,625.572510 661.332642,626.282471 662.480408,627.591003 
	C473.332001,627.591003 284.898163,627.591003 96.051956,627.591003 
	C96.483955,626.635620 96.859772,625.804443 97.539566,624.715942 
z"/>
<path fill="#FDFDFD" opacity="1.000000" stroke="none" 
	d="
M179.109756,547.039856 
	C196.290344,517.412292 213.506790,487.805420 230.642761,458.152069 
	C253.857864,417.978973 277.011292,377.770233 300.576569,337.459656 
	C304.346313,342.455048 305.902588,348.782959 309.992645,353.426300 
	C310.495056,353.125305 310.997437,352.824280 311.499847,352.523254 
	C310.351410,349.891235 309.202942,347.259216 308.069031,344.660492 
	C313.958344,341.393860 313.919098,341.430023 318.335693,346.222198 
	C319.093201,347.044098 320.346130,347.409454 321.370209,347.985718 
	C321.668213,347.595062 321.966248,347.204376 322.264282,346.813721 
	C320.017029,344.167328 317.769806,341.520935 315.522583,338.874542 
	C315.732422,336.344910 315.527069,333.257080 313.918304,332.067963 
	C312.398895,330.944977 309.375336,331.596863 307.068665,331.895294 
	C305.656494,332.078003 304.348480,333.065735 302.993683,333.691895 
	C309.435211,322.255341 315.791382,310.769714 322.334778,299.391724 
	C339.666077,269.255219 357.076416,239.164200 374.464325,209.060303 
	C375.291901,207.627502 376.205811,206.244583 377.506683,204.150940 
	C381.965485,211.797073 386.195374,218.990402 390.368256,226.216599 
	C411.747253,263.238342 433.113831,300.267273 454.466949,337.303955 
	C454.954529,338.149719 455.231995,339.116638 455.384521,340.172485 
	C453.675232,341.036255 452.001709,341.519928 450.743073,342.523834 
	C448.413330,344.382019 446.326385,346.544647 443.256348,349.401154 
	C443.460632,343.359497 446.271820,338.945679 443.950348,333.554840 
	C443.066986,334.843536 442.769623,335.084930 442.732086,335.361603 
	C442.330353,338.321747 441.973419,341.287933 441.596680,344.251495 
	C441.303833,346.555176 441.672302,349.316956 440.504059,351.025269 
	C439.432404,352.592407 436.698303,353.022675 434.696686,353.953827 
	C436.774506,354.911438 439.383728,355.420227 440.691071,354.345428 
	C445.907196,350.057220 450.718262,345.276184 455.679230,340.677551 
	C460.501923,348.606140 465.478241,356.445801 470.123322,364.477051 
	C512.926086,438.482483 555.671509,512.521057 598.713257,587.139893 
	C600.218262,589.578003 601.443542,591.426208 602.668884,593.274353 
	C602.668884,593.274353 602.649841,593.320557 602.616394,593.443726 
	C602.582947,593.566833 602.629700,593.770813 602.629700,593.770813 
	C602.629700,593.770813 602.322754,594.040649 601.726379,594.111206 
	C600.630615,594.166260 600.131226,594.137085 599.631836,594.137085 
	C452.216949,594.134644 304.802063,594.133118 157.387192,594.146851 
	C155.899719,594.147034 154.412277,594.348450 152.924835,594.455933 
	C152.924835,594.455933 152.634537,594.121216 152.508682,593.855774 
	C152.382828,593.590332 152.339264,593.361389 152.339264,593.361389 
	C152.339264,593.361389 152.359161,593.276306 152.635483,593.048950 
	C153.689026,591.281616 154.466248,589.741638 155.243469,588.201599 
	C155.243454,588.201599 155.039825,588.114319 155.384933,587.988586 
	C155.927765,587.344971 156.125488,586.827026 156.323227,586.309143 
	C156.323227,586.309143 156.133667,586.307861 156.514084,586.136780 
	C157.942444,583.986023 158.990387,582.006348 160.038330,580.026672 
	C160.038315,580.026672 160.000000,580.000000 160.300720,579.840515 
	C161.749374,577.468384 162.897293,575.255737 164.045227,573.043091 
	C164.045227,573.043091 164.000244,573.010010 164.305496,572.839722 
	C166.499100,569.197998 168.387451,565.726501 170.275818,562.255066 
	C170.275818,562.255066 170.105453,562.227844 170.409851,562.091492 
	C170.820587,561.642090 170.926956,561.328979 171.033325,561.015930 
	C171.033325,561.015930 170.997025,561.004272 171.293045,560.831787 
	C174.095963,556.119568 176.602859,551.579712 179.109756,547.039856 
M433.449921,570.306885 
	C433.676300,570.437134 433.902649,570.567322 433.731750,571.315918 
	C433.561920,573.397278 432.427338,576.391174 433.386200,577.404968 
	C437.983978,582.265991 440.779724,575.415344 445.079193,575.562744 
	C443.524994,572.048767 442.517303,568.817810 440.727264,566.102661 
	C439.750000,564.620361 437.142273,562.900635 435.813812,563.265930 
	C433.760071,563.830688 432.172272,566.089844 430.386871,567.630371 
	C431.199707,568.364929 432.012543,569.099548 433.449921,570.306885 
M488.887024,545.659485 
	C491.989258,548.801331 494.503601,546.940125 496.736633,544.560791 
	C499.313232,541.815491 500.012817,538.621338 497.186768,535.693420 
	C493.771271,532.154785 490.050140,528.911194 486.340851,525.426758 
	C483.531616,529.615234 476.983521,531.284180 479.862335,537.729980 
	C481.558960,541.528687 484.579681,543.624512 488.919495,544.150879 
	C488.941925,544.424377 488.964386,544.697937 488.887024,545.659485 
M421.335083,334.582153 
	C421.393341,334.089386 421.487579,333.597809 421.504395,333.103638 
	C421.679352,327.962585 419.467377,324.964325 414.904449,324.136505 
	C411.024780,323.432648 407.570709,325.701355 406.204285,329.850891 
	C404.742676,334.289520 406.226959,338.229614 410.024048,339.990662 
	C414.319824,341.983032 417.620575,340.812531 420.485382,336.391876 
	C420.911163,335.734894 421.717773,335.324677 422.412262,335.760620 
	C422.412262,338.158051 422.412262,340.555481 422.412262,342.952881 
	C420.994629,344.258514 420.064240,346.544312 420.654114,347.047333 
	C422.682587,348.777130 425.187317,350.800140 427.617462,350.947418 
	C429.694733,351.073334 432.873901,349.297821 433.889404,347.444733 
	C436.388977,342.883636 437.923737,337.793823 439.715424,333.249115 
	C437.295410,331.926056 435.523743,330.477753 433.519073,329.993195 
	C431.415039,329.484589 428.805115,329.261841 426.936859,330.089417 
	C425.040161,330.929535 423.779114,333.204590 421.335083,334.582153 
M454.119873,394.149902 
	C451.251862,389.900116 447.665741,392.883514 443.424988,392.197845 
	C447.743317,396.798828 447.777283,413.929749 444.404358,418.614685 
	C447.213501,418.614685 450.022614,418.614685 453.254303,418.614685 
	C447.547607,413.618225 451.270447,407.781128 450.553009,402.501953 
	C452.787415,406.954498 454.389648,411.580292 456.249542,416.100067 
	C456.720093,417.243652 458.012482,418.049042 458.927246,419.009857 
	C459.752960,417.973602 460.915466,417.059967 461.345276,415.879547 
	C463.089996,411.087708 464.609741,406.213928 466.212463,401.370392 
	C466.559753,401.463531 466.907013,401.556671 467.254272,401.649841 
	C466.920654,407.358093 466.587006,413.066376 466.267242,418.537415 
	C468.523529,418.537415 471.968964,418.537415 476.029114,418.537415 
	C470.641907,414.596588 473.277161,409.612762 472.968079,405.350830 
	C472.656799,401.059143 473.400299,396.690979 473.692291,392.192047 
	C473.776489,392.195740 472.769897,392.263306 471.806641,392.090027 
	C467.035889,391.231934 464.594330,393.091522 463.733276,397.966431 
	C463.092407,401.594818 461.525055,405.059570 459.960266,409.853455 
	C457.795105,404.038940 456.095459,399.474670 454.119873,394.149902 
M282.975342,462.771515 
	C281.714111,458.467194 280.571289,454.122040 279.111115,449.886292 
	C278.730927,448.783478 277.360718,448.021942 276.445221,447.103638 
	C275.651001,448.007263 274.470337,448.785187 274.128387,449.835968 
	C272.516571,454.789124 271.134552,459.817047 269.670563,464.818298 
	C268.290771,459.073730 263.272461,454.017303 266.650146,447.435089 
	C263.339569,447.435089 259.863281,447.435089 257.359497,447.435089 
	C260.060089,456.298462 262.750336,465.127930 265.798065,475.130554 
	C272.978485,471.334747 271.179932,463.366089 275.325562,458.190491 
	C276.637848,462.576416 277.715393,466.656891 279.125946,470.618835 
	C279.587341,471.914825 280.914642,472.902557 281.845978,474.031281 
	C282.985779,472.942261 284.671997,472.060150 285.175537,470.730225 
	C288.146851,462.882660 290.843140,454.930908 293.431458,447.583557 
	C291.682220,447.583557 288.866302,447.583557 285.028625,447.583557 
	C286.957520,448.945404 287.969025,449.659515 288.953369,450.354492 
	C287.601166,454.695923 286.358765,458.832123 284.967834,462.917755 
	C284.831726,463.317505 283.781403,463.406006 282.975342,462.771515 
M392.763245,448.426880 
	C386.667694,447.841156 380.572113,447.255432 373.192780,446.546356 
	C377.593964,451.601837 377.703979,468.362427 374.440216,473.964966 
	C379.208374,473.964966 383.852051,474.173767 388.466980,473.899323 
	C392.199829,473.677307 396.372681,472.623077 396.849609,468.384369 
	C397.175659,465.486755 395.257996,462.336761 394.125671,458.576294 
	C397.528076,455.320862 397.631775,452.788086 392.763245,448.426880 
M350.732971,392.104248 
	C349.550415,392.264191 348.367859,392.424164 347.134552,392.590973 
	C352.116119,398.031921 348.892609,404.042938 349.478455,409.666412 
	C346.364105,405.355865 343.741211,400.865417 341.150208,396.356659 
	C338.299133,391.395386 336.824188,390.908508 331.927185,392.746307 
	C333.585876,401.613190 333.995392,410.152618 331.650238,418.666565 
	C333.909363,418.666565 336.595337,418.666565 339.620575,418.666565 
	C334.504913,413.524261 337.654633,407.890717 337.250977,402.606201 
	C340.107330,406.658569 342.783630,410.664612 344.810272,414.976044 
	C346.647705,418.884949 349.204071,419.937500 353.003906,418.644073 
	C354.501434,410.025574 351.449188,400.985138 354.976868,392.292542 
	C354.397217,392.260529 352.984222,392.182465 350.732971,392.104248 
M451.783600,469.854889 
	C451.783600,465.785522 451.783600,461.716156 451.783600,457.646790 
	C455.017914,461.534973 457.736023,465.466583 459.673401,469.751221 
	C461.542480,473.884796 464.134094,474.911530 467.914764,473.636536 
	C469.753448,464.837646 465.891266,455.727295 470.371674,447.545105 
	C467.936829,447.545105 465.107483,447.545105 461.849518,447.545105 
	C465.175110,450.789917 465.956085,458.038269 464.021820,465.020996 
	C461.426819,460.519836 458.934448,456.226624 456.471222,451.916718 
	C453.233276,446.251251 452.672150,446.027557 446.045441,447.938416 
	C448.908234,451.791626 448.931183,468.998138 446.031403,473.736481 
	C448.817261,473.736481 451.550629,473.736481 455.110077,473.736481 
	C453.650452,472.355743 452.772461,471.525177 451.783600,469.854889 
M437.160431,392.090912 
	C434.652924,392.090912 432.145416,392.090912 429.171875,392.090912 
	C430.673004,394.290741 432.193878,395.504578 432.253693,396.786560 
	C432.486053,401.767456 432.329437,406.772400 432.168488,411.763611 
	C432.063141,415.029755 430.044220,416.562164 426.921906,416.466309 
	C423.831421,416.371460 421.928589,414.794189 421.887634,411.505829 
	C421.839905,407.675537 421.627808,403.829895 421.894073,400.019318 
	C422.068085,397.528839 422.965546,395.088898 423.567993,392.501709 
	C420.564240,392.501709 416.811066,392.501709 413.897491,392.501709 
	C414.598175,395.260437 415.533997,397.609009 415.728546,400.017487 
	C416.036102,403.825134 415.257263,407.804199 416.070679,411.458588 
	C416.632294,413.981659 418.603424,417.114838 420.811859,418.183929 
	C429.338959,422.311737 436.129883,417.782349 436.259644,408.405029 
	C436.301117,405.407410 436.029724,402.385620 436.327301,399.417572 
	C436.574280,396.954529 437.446533,394.554169 437.160431,392.090912 
M476.246857,458.883209 
	C476.241516,460.213959 476.113556,461.557404 476.250214,462.873413 
	C477.308777,473.066132 486.126312,477.707123 495.176971,472.699188 
	C496.355743,472.046936 497.413666,470.294708 497.603973,468.923798 
	C497.981750,466.201813 497.715637,463.390503 497.715637,460.164795 
	C494.337646,460.423889 491.636871,460.631042 489.968292,460.759033 
	C490.748749,464.344513 491.439667,467.518585 492.130615,470.692688 
	C491.583893,471.178192 491.037201,471.663666 490.490509,472.149170 
	C488.402710,471.054993 485.785614,470.421844 484.342926,468.765686 
	C481.749054,465.787964 481.906158,454.429871 484.392975,451.490326 
	C485.413879,450.283600 487.397430,449.485626 489.002228,449.377167 
	C489.649445,449.333435 490.365723,451.700348 491.215149,452.848419 
	C491.981445,453.884094 493.060028,455.582672 493.843353,455.499847 
	C494.986877,455.378906 497.024963,453.597137 496.866943,453.099060 
	C496.286346,451.268921 495.356110,448.930115 493.842041,448.120148 
	C486.223785,444.044983 478.438019,448.603058 476.246857,458.883209 
M301.272675,458.560242 
	C301.005859,463.593384 300.739014,468.626526 300.469513,473.710205 
	C305.741974,473.710205 312.282837,473.710205 318.651367,473.710205 
	C318.651367,471.012512 318.651367,468.651062 318.651367,466.289612 
	C318.295685,465.770966 317.940002,465.252289 317.584320,464.733643 
	C315.529510,469.986450 312.858917,473.700043 307.553467,470.669189 
	C307.553467,467.675964 307.553467,464.738098 307.553467,460.570526 
	C310.381195,462.081604 312.486572,463.206696 314.905334,464.499237 
	C314.905334,461.644287 314.905334,458.887756 314.905334,456.399170 
	C312.375153,457.433167 310.082092,458.370239 307.438049,459.450775 
	C307.438049,455.618378 307.438049,452.990295 307.438049,450.669586 
	C312.626038,446.672180 314.644501,453.292725 318.903564,454.371643 
	C318.765533,451.474396 318.667267,449.412231 318.567139,447.310669 
	C311.754028,447.310669 305.501007,447.310669 300.325531,447.310669 
	C300.652374,450.860229 300.962280,454.225891 301.272675,458.560242 
M419.957581,447.095367 
	C414.365479,447.095367 408.773346,447.095367 404.057709,447.095367 
	C405.501282,456.298126 405.831177,465.000885 403.829529,473.759796 
	C409.524902,473.759796 415.927612,473.759796 422.621338,473.759796 
	C422.621338,471.121735 422.621338,468.753876 422.621338,465.008240 
	C418.902039,468.459534 417.051514,474.131348 411.245178,470.822144 
	C411.245178,467.979858 411.245178,464.858612 411.245178,460.640747 
	C414.012268,462.043365 416.282837,463.194305 418.591614,464.364594 
	C418.591614,461.636200 418.591614,458.903442 418.591614,456.407440 
	C416.079529,457.531342 413.893402,458.509430 411.344849,459.649658 
	C411.344849,455.782959 411.344849,452.867218 411.344849,448.288452 
	C415.598724,450.493805 418.875763,452.192749 423.442719,454.560425 
	C422.298248,451.291229 421.565674,449.198547 419.957581,447.095367 
M324.291382,416.368378 
	C321.814728,409.706390 319.466736,402.991669 316.772217,396.419006 
	C316.087341,394.748383 314.301025,393.529358 313.020813,392.102814 
	C311.907410,393.477112 310.468384,394.701447 309.751404,396.258331 
	C308.442383,399.100922 307.624878,402.165253 306.486328,405.092010 
	C304.701477,409.680115 302.820312,414.230743 301.074677,418.562164 
	C303.136292,418.562164 305.999115,418.562164 308.861908,418.562164 
	C303.950684,417.189331 305.902252,413.119385 307.371582,412.204071 
	C309.517731,410.867126 313.101379,410.617157 315.515900,411.473175 
	C316.636169,411.870361 316.445221,415.965820 316.848663,418.384705 
	C318.383087,419.016449 321.361115,419.065430 324.329956,418.923492 
	C324.567444,418.912170 324.742004,417.583923 324.291382,416.368378 
M291.577423,399.735352 
	C292.957825,399.224121 294.338226,398.712921 295.718597,398.201691 
	C295.149475,396.756805 294.871979,394.314636 293.958435,394.047455 
	C290.772064,393.115540 287.180389,392.090179 284.107178,392.763550 
	C282.007446,393.223663 279.261993,396.347687 279.083649,398.471954 
	C278.884003,400.850128 280.949066,403.679749 282.623108,405.855591 
	C283.623169,407.155396 286.125397,407.236755 287.299194,408.481659 
	C288.730377,409.999542 289.908936,412.083252 290.282990,414.092377 
	C290.413879,414.795410 287.943756,416.584778 286.470428,416.861664 
	C283.188812,417.478363 282.948914,414.729614 282.522308,412.412018 
	C282.436157,411.944092 282.160187,411.511139 281.524994,409.997650 
	C280.326233,411.238556 278.693573,412.185638 278.743713,413.033142 
	C278.844513,414.736725 279.591492,417.624573 280.551666,417.835114 
	C284.009796,418.593353 287.831085,419.145386 291.187805,418.365753 
	C293.161377,417.907379 295.652496,414.900269 295.859314,412.834198 
	C296.111664,410.312805 294.700531,407.210876 293.085724,405.049744 
	C291.829132,403.368011 288.884399,403.050751 287.202606,401.551819 
	C285.788818,400.291626 285.114258,398.202026 284.112427,396.479614 
	C285.597443,395.703430 287.082458,394.927246 288.567444,394.151062 
	C289.375061,395.817474 290.182709,397.483887 291.577423,399.735352 
M402.982178,394.980896 
	C404.331665,396.652039 405.681152,398.323151 407.914703,401.089050 
	C407.914703,397.203186 407.914703,394.823853 407.914703,392.234009 
	C400.647461,392.234009 393.398407,392.234009 385.710907,392.234009 
	C385.879059,394.904694 386.032349,397.339691 386.225983,400.415253 
	C391.568604,395.189362 391.568604,395.189362 393.824799,395.506256 
	C394.758087,412.927643 394.538605,414.940063 391.227051,418.662964 
	C395.116058,418.662964 398.912933,418.662964 402.474335,418.662964 
	C401.581665,416.880463 400.200043,415.341492 400.117981,413.736053 
	C399.837677,408.252716 399.930511,402.743256 400.110077,397.251282 
	C400.136139,396.454102 401.412201,395.697815 402.982178,394.980896 
M374.967163,392.081085 
	C370.461731,391.636902 366.278656,392.152954 363.398560,396.206085 
	C360.244202,400.645233 360.125977,410.208313 363.114807,414.809784 
	C367.200226,421.099396 376.876434,420.876923 381.191315,413.650543 
	C379.161072,414.667755 377.744873,415.992676 376.421539,415.905670 
	C374.044373,415.749390 371.049164,415.433380 369.527435,413.943176 
	C366.881531,411.352234 367.057098,399.075623 369.333679,396.173828 
	C370.116852,395.175537 371.743439,394.429108 373.008118,394.393219 
	C373.629425,394.375610 374.323242,396.231506 374.949524,397.260681 
	C375.616241,398.356323 376.014404,400.019165 376.957642,400.414917 
	C377.710632,400.730865 379.693085,399.775269 380.070526,398.917755 
	C380.568970,397.785492 380.516296,395.842041 379.819916,394.894562 
	C378.925415,393.677490 377.156647,393.102997 374.967163,392.081085 
M341.632721,467.350372 
	C340.652100,472.711212 336.817047,471.501038 333.310944,471.271729 
	C331.987335,458.442200 332.622589,451.516785 335.365509,447.502289 
	C331.901794,447.502289 328.365997,447.502289 324.543152,447.502289 
	C327.803192,451.735107 327.892059,469.248291 324.811432,473.754578 
	C331.330963,473.754578 337.680969,473.754578 344.209930,473.754578 
	C344.407288,471.699158 344.801025,469.867920 344.624084,468.093597 
	C344.569153,467.542877 342.965607,467.146606 341.632721,467.350372 
M351.947815,453.941223 
	C351.142883,460.444733 353.825897,467.298157 349.851501,473.753479 
	C356.333374,473.753479 362.680573,473.753479 369.340668,473.753479 
	C369.340668,471.129150 369.340668,468.775146 369.340668,464.626343 
	C365.747040,468.845795 363.751801,474.184174 357.805176,470.588684 
	C358.939056,463.104218 355.973022,455.012238 359.833221,447.578461 
	C356.938477,447.578461 353.354950,447.578461 350.048279,447.578461 
	C350.761841,449.637634 351.354126,451.346893 351.947815,453.941223 
M409.732819,568.599609 
	C408.407654,568.599609 407.082520,568.599609 405.669464,568.599609 
	C407.310760,579.927002 409.577515,586.032715 412.798370,586.969543 
	C411.674530,582.890991 410.620728,579.066711 409.566956,575.242432 
	C409.888855,574.988586 410.210754,574.734741 410.532654,574.480896 
	C412.611847,577.425720 414.592010,580.449219 416.830078,583.267944 
	C417.507446,584.121033 418.898804,584.407288 419.963135,584.953125 
	C420.405548,583.992737 421.132111,583.063354 421.240692,582.066589 
	C421.686798,577.969604 421.944946,573.852234 422.370453,568.508911 
	C424.132294,574.220093 425.510590,578.687988 426.888885,583.155884 
	C427.566833,582.943481 428.244751,582.731079 428.922699,582.518616 
	C427.273865,576.346558 425.625061,570.174438 423.678925,562.889465 
	C416.760559,568.218750 421.780029,575.906311 418.177917,581.246582 
	C415.449249,577.172546 412.785980,573.196106 409.732819,568.599609 
M431.132111,465.308716 
	C430.534821,468.167053 429.937561,471.025360 429.371887,473.732483 
	C432.359680,473.732483 436.083862,473.732483 440.697723,473.732483 
	C435.013428,469.885406 437.374176,464.791351 437.248840,460.385712 
	C437.125061,456.034698 438.033234,451.654327 438.471375,447.452820 
	C435.913544,447.452820 432.194702,447.452820 429.262054,447.452820 
	C429.927124,450.092651 430.824921,452.456970 431.059204,454.885315 
	C431.361328,458.017303 431.132507,461.200531 431.132111,465.308716 
M341.054230,578.401978 
	C340.499664,580.840576 339.945068,583.279236 339.390472,585.717834 
	C340.081665,585.899658 340.772858,586.081421 341.464050,586.263184 
	C343.316101,580.072754 345.168152,573.882385 347.020203,567.691956 
	C346.323883,567.454834 345.627533,567.217712 344.931213,566.980530 
	C343.890411,569.735962 342.849579,572.491394 341.763245,575.367249 
	C338.344635,574.302307 335.373657,573.376770 332.426483,572.458679 
	C333.010681,569.402527 333.545166,566.606384 334.079651,563.810242 
	C333.438019,563.676941 332.796356,563.543701 332.154694,563.410461 
	C330.348755,569.534058 328.542816,575.657654 326.736847,581.781189 
	C327.337433,582.002075 327.938019,582.222961 328.538605,582.443848 
	C329.594421,579.922668 330.650238,577.401428 331.838837,574.563171 
	C335.006165,575.621521 337.970551,576.612061 341.054230,578.401978 
M365.056122,333.876007 
	C365.062164,333.096252 365.068207,332.316498 365.074280,331.536743 
	C364.247894,332.025940 363.430878,332.531891 362.593048,333.000641 
	C361.122803,333.823059 359.518707,335.419037 358.194733,335.217712 
	C356.743286,334.997009 355.545288,333.109406 353.322540,331.136780 
	C358.369293,330.280334 361.895966,329.681885 365.508881,329.068756 
	C364.869720,324.263977 363.344360,320.823547 358.165131,320.988617 
	C354.287781,321.112152 350.674286,324.618866 351.306580,328.640320 
	C351.771484,331.597229 353.365662,335.144348 355.639740,336.861847 
	C358.736481,339.200592 362.276672,337.570923 365.056122,333.876007 
M390.529205,590.038025 
	C392.036652,589.811646 393.544128,589.585327 395.502747,589.291260 
	C395.002228,582.677246 394.489655,575.904297 393.977051,569.131348 
	C393.335144,569.169067 392.693237,569.206787 392.051331,569.244568 
	C391.953979,571.423523 391.856659,573.602478 391.759338,575.781433 
	C391.492828,575.310852 391.226349,574.840332 390.959839,574.369751 
	C388.119751,575.445435 384.023315,575.748474 382.763916,577.796326 
	C381.257690,580.245544 381.376007,584.425049 382.267456,587.414795 
	C383.185120,590.492371 386.458893,591.409241 390.529205,590.038025 
M273.527802,534.735962 
	C271.709381,536.982483 267.989349,539.781738 268.449829,541.365784 
	C269.569702,545.218140 272.630707,548.506226 275.282715,552.596741 
	C280.783783,546.802673 285.425690,541.913452 290.067596,537.024231 
	C289.619415,536.538147 289.171265,536.052063 288.723114,535.565979 
	C286.962677,536.960999 285.202209,538.356018 283.485809,539.716125 
	C281.784210,535.417969 279.004517,533.151367 273.527802,534.735962 
M319.956726,336.487366 
	C320.505890,338.200623 320.851379,340.015778 321.646790,341.605865 
	C323.278931,344.868530 326.133789,345.998444 329.563538,345.029999 
	C333.044647,344.047089 335.158142,341.828156 334.755707,336.364746 
	C332.700378,339.156525 331.766815,341.556091 330.034424,342.520081 
	C327.237762,344.076385 325.027557,342.550415 323.897247,339.381561 
	C325.651520,338.671417 327.319244,337.974670 329.003571,337.320648 
	C330.656128,336.678955 332.325623,336.080750 334.203156,335.383423 
	C332.958771,331.555084 331.316742,328.553711 327.040161,328.797333 
	C322.863647,329.035278 320.405365,331.418762 319.956726,336.487366 
M397.287537,329.239746 
	C396.929901,323.117035 394.599060,320.301880 389.740204,320.124237 
	C385.521057,319.969971 382.324249,322.960480 381.871185,327.485474 
	C381.366394,332.527191 383.623474,335.956573 388.016174,336.822205 
	C392.513611,337.708466 395.637024,335.374878 397.287537,329.239746 
M288.541748,561.658936 
	C291.135956,563.465637 293.730164,565.272339 296.430237,567.152771 
	C298.408661,564.121826 300.202179,561.350037 302.020874,558.594849 
	C303.832672,555.849976 303.226379,553.595276 300.680634,551.710205 
	C297.791077,549.570557 296.084320,549.801270 293.359741,552.695312 
	C301.268585,553.820618 301.268585,553.820618 299.099762,557.654663 
	C290.709839,554.061890 288.646454,554.692261 288.541748,561.658936 
M493.747498,515.120728 
	C492.936798,516.152222 491.869507,517.071899 491.362732,518.235718 
	C489.734192,521.975342 491.961884,526.060059 496.438080,528.173096 
	C500.402313,530.044373 503.301971,528.626404 505.166656,525.148376 
	C506.841217,522.024902 505.801544,520.364075 502.787292,517.665344 
	C499.874908,515.057861 498.062653,513.555786 493.747498,515.120728 
M359.403442,584.573425 
	C358.710236,584.891724 358.045959,585.339417 357.317963,585.501892 
	C355.709503,585.860901 353.787872,586.712097 352.527985,586.154907 
	C351.467468,585.685974 351.161255,583.511230 350.236664,581.460876 
	C354.561401,582.016846 357.736816,582.425049 360.896118,582.831177 
	C361.563263,576.638306 360.128601,574.024231 355.846771,573.503906 
	C351.323120,572.954163 349.173096,575.764893 348.114624,579.586426 
	C346.917603,583.908386 348.832062,587.734985 352.714142,588.676453 
	C355.981293,589.468689 358.996063,589.145386 359.403442,584.573425 
M477.240967,542.057129 
	C474.601227,538.941833 471.848511,539.148865 469.193451,541.946228 
	C467.283569,543.958435 466.818787,546.118530 468.579285,548.477295 
	C470.055450,545.963806 471.098145,544.000183 472.426086,542.253357 
	C472.543274,542.099182 474.523926,543.361633 475.645386,543.969482 
	C473.262970,547.507812 468.174927,550.394653 472.507538,554.094116 
	C478.520416,559.228271 479.537048,550.655701 483.661591,549.408875 
	C481.440430,546.843628 479.598816,544.716736 477.240967,542.057129 
M369.070496,575.442749 
	C367.882751,576.683960 366.695007,577.925110 364.705536,580.004089 
	C368.430817,578.806885 370.491394,577.977173 372.629730,577.638611 
	C372.949432,577.588013 373.634003,579.841919 374.208801,581.165649 
	C370.045288,582.121155 364.447052,580.621338 364.728607,586.168579 
	C365.134308,594.161560 372.098938,588.577087 375.617249,590.521606 
	C375.787659,590.095642 375.999664,589.798767 376.014313,589.492371 
	C376.133240,587.004517 376.240814,584.515564 376.303131,582.025696 
	C376.445251,576.346375 375.707245,575.580750 369.070496,575.442749 
M308.203064,558.049316 
	C306.060883,562.180786 303.918701,566.312256 301.776520,570.443726 
	C302.366547,570.826111 302.956604,571.208435 303.546631,571.590820 
	C304.817535,569.449402 306.049164,567.283447 307.369690,565.173096 
	C308.920837,562.694214 310.733459,560.159180 314.066895,562.103210 
	C317.277557,563.975708 315.032959,566.369629 314.091644,568.525574 
	C313.088684,570.822815 312.066345,573.111633 310.752960,576.081299 
	C312.426117,575.778320 312.890717,575.826843 312.998322,575.653625 
	C313.862823,574.262207 314.719635,572.859558 315.467957,571.403381 
	C319.696228,563.175354 319.678436,563.186523 310.987091,559.385986 
	C310.180756,559.033386 309.542847,558.295776 308.203064,558.049316 
M448.890808,568.813232 
	C448.592529,569.282227 448.294281,569.751160 447.996033,570.220154 
	C450.073334,570.515259 452.548767,571.636597 454.119202,570.879944 
	C455.786713,570.076416 456.595642,567.491028 457.779541,565.683777 
	C455.955658,564.625916 454.201141,563.403503 452.273987,562.590454 
	C451.494415,562.261597 450.259552,563.132690 449.372864,562.906067 
	C448.293213,562.630066 447.362122,561.772522 446.366821,561.166565 
	C447.454102,560.437500 448.456207,559.404907 449.653778,559.068787 
	C450.745636,558.762390 452.049469,559.210999 454.561279,559.451477 
	C450.340485,556.248474 448.017670,555.859070 446.041748,558.065796 
	C444.925537,559.312439 444.841309,561.483093 444.292206,563.237549 
	C446.458588,563.886780 448.611877,564.586609 450.799805,565.152527 
	C451.407379,565.309692 452.183655,564.868713 452.765076,565.059753 
	C453.597717,565.333252 455.018188,566.054810 454.963226,566.374634 
	C454.796448,567.344727 454.224792,568.729370 453.470642,568.998230 
	C452.402618,569.378906 451.030823,568.907471 448.890808,568.813232 
M265.747925,524.108032 
	C270.393890,526.127625 270.796448,527.824341 267.285553,530.986389 
	C265.159576,532.901062 262.929199,534.699951 260.745758,536.550842 
	C261.161041,537.106873 261.576294,537.662964 261.991577,538.218994 
	C265.361572,535.946045 269.243805,533.835266 271.235321,530.229858 
	C274.512238,524.297485 266.967957,523.474670 265.614838,519.077454 
	C261.846619,522.919006 257.305267,525.125366 254.590912,529.120178 
	C254.903946,529.458252 255.216980,529.796387 255.530029,530.134460 
	C258.678223,528.151978 261.826447,526.169556 265.747925,524.108032 
M377.730347,331.604187 
	C376.868378,330.411072 376.006378,329.217987 375.099701,327.963043 
	C376.748566,325.371399 378.305206,322.924652 379.861847,320.477936 
	C379.481232,320.138367 379.100616,319.798798 378.720001,319.459198 
	C376.906982,321.500153 375.093994,323.541077 373.463593,325.376434 
	C371.641479,323.555695 369.816742,321.732330 367.992004,319.908966 
	C367.610718,320.323578 367.229431,320.738190 366.848114,321.152771 
	C368.535217,323.529510 370.222321,325.906250 371.815582,328.150787 
	C370.076263,330.871643 368.547668,333.262909 367.019073,335.654175 
	C367.533417,336.024445 368.047760,336.394714 368.562103,336.764984 
	C370.206390,334.609314 371.850677,332.453644 373.409698,330.409760 
	C375.288666,332.406860 377.221405,334.461090 379.154144,336.515320 
	C379.533630,336.161560 379.913116,335.807800 380.292603,335.454041 
	C379.579285,334.391266 378.865967,333.328461 377.730347,331.604187 
M468.897705,555.734070 
	C466.393707,555.683838 463.876495,555.767212 461.391724,555.522156 
	C460.290314,555.413513 459.254425,554.640686 458.188812,554.169373 
	C459.096497,553.200439 459.842194,551.835266 460.959290,551.378540 
	C461.992340,550.956116 463.423126,551.506714 465.805511,551.738342 
	C462.707275,548.080444 460.069916,548.486328 458.152405,550.465393 
	C456.915558,551.741882 456.822357,554.126404 456.216614,556.014343 
	C458.250702,556.617065 460.273315,557.265503 462.328949,557.782471 
	C462.722137,557.881348 463.266357,557.271606 463.704803,557.319397 
	C464.916016,557.451660 466.148712,557.654602 467.270966,558.091431 
	C467.476868,558.171448 467.488312,559.843872 467.095123,560.153503 
	C466.143311,560.903015 464.945221,561.473267 463.760651,561.754700 
	C462.659943,562.016235 461.448212,561.810486 460.285400,561.810486 
	C460.362762,562.534180 460.440094,563.257812 460.517456,563.981506 
	C462.836517,563.557861 465.708588,563.812744 467.309479,562.507935 
	C468.733551,561.347290 468.749115,558.458557 468.897705,555.734070 
M337.978668,320.956757 
	C338.472229,320.402222 338.965820,319.847687 339.459412,319.293182 
	C338.950012,319.010071 338.042419,318.420197 337.989563,318.488831 
	C336.733063,320.119751 334.893768,321.683868 334.515991,323.536530 
	C333.464294,328.694397 337.824646,332.702148 338.169769,337.696014 
	C338.256195,338.946014 339.113922,340.142700 339.998230,342.288635 
	C343.287628,336.129120 335.250763,330.635712 340.088348,326.542847 
	C339.057526,324.588654 338.199402,322.961853 337.978668,320.956757 
M343.293793,322.643158 
	C344.234192,326.993835 345.103027,331.361633 346.140900,335.688934 
	C346.797058,338.424683 348.079498,340.246094 350.290649,338.714508 
	C348.313690,331.243958 346.486176,324.338074 344.658661,317.432220 
	C344.144806,317.460327 343.630981,317.488434 343.117126,317.516510 
	C343.117126,318.977722 343.117126,320.438934 343.293793,322.643158 
M403.416168,316.048096 
	C403.109436,316.129669 402.556030,316.165710 402.531403,316.299286 
	C401.366486,322.616333 400.091919,328.922150 399.286682,335.287018 
	C399.162506,336.268463 401.218140,337.525665 402.606323,339.022736 
	C402.606323,335.374542 402.442139,333.065430 402.640228,330.787872 
	C403.062378,325.933990 403.672577,321.096466 403.416168,316.048096 
M264.204865,514.479187 
	C264.897858,513.558228 265.590820,512.637207 266.283783,511.716217 
	C265.920837,511.382538 265.557892,511.048828 265.194946,510.715118 
	C260.150513,514.679993 254.047272,517.256042 249.659943,522.082825 
	C249.993362,522.568298 250.326767,523.053711 250.660187,523.539185 
	C254.979584,520.669861 259.298981,517.800476 264.204865,514.479187 
M281.213867,556.187805 
	C284.323730,556.094727 290.214172,549.074707 289.782043,544.135193 
	C286.837677,547.926208 283.893341,551.717224 281.213867,556.187805 
z"/>
<path fill="#A481ED" opacity="1.000000" stroke="none" 
	d="
M153.086121,594.790649 
	C154.412277,594.348450 155.899719,594.147034 157.387192,594.146851 
	C304.802063,594.133118 452.216949,594.134644 599.631836,594.137085 
	C600.131226,594.137085 600.630615,594.166260 601.596863,594.269287 
	C600.148926,594.882446 598.234741,595.864990 596.319275,595.867432 
	C533.345764,595.948120 470.372162,595.935486 407.398590,595.935425 
	C324.599976,595.935364 241.801376,595.939758 159.002777,595.899963 
	C157.084198,595.899048 155.165848,595.394836 153.086121,594.790649 
z"/>
<path fill="#19181B" opacity="1.000000" stroke="none" 
	d="
M302.802765,333.867371 
	C304.348480,333.065735 305.656494,332.078003 307.068665,331.895294 
	C309.375336,331.596863 312.398895,330.944977 313.918304,332.067963 
	C315.527069,333.257080 315.732422,336.344910 315.522583,338.874542 
	C317.769806,341.520935 320.017029,344.167328 322.264282,346.813721 
	C321.966248,347.204376 321.668213,347.595062 321.370209,347.985718 
	C320.346130,347.409454 319.093201,347.044098 318.335693,346.222198 
	C313.919098,341.430023 313.958344,341.393860 308.069031,344.660492 
	C309.202942,347.259216 310.351410,349.891235 311.499847,352.523254 
	C310.997437,352.824280 310.495056,353.125305 309.992645,353.426300 
	C305.902588,348.782959 304.346313,342.455048 300.712677,337.056091 
	C301.179535,335.860748 301.895691,334.951813 302.802765,333.867371 
M305.413940,334.992279 
	C301.681396,338.316742 306.508148,339.724640 306.607513,342.704926 
	C308.737427,341.615173 310.880310,341.182861 311.755432,339.891479 
	C312.703827,338.491974 312.470734,336.291840 312.752869,334.440887 
	C310.540924,334.519409 308.328949,334.597931 305.413940,334.992279 
z"/>
<path fill="#151515" opacity="1.000000" stroke="none" 
	d="
M455.726562,340.684326 
	C450.718262,345.276184 445.907196,350.057220 440.691071,354.345428 
	C439.383728,355.420227 436.774506,354.911438 434.696686,353.953827 
	C436.698303,353.022675 439.432404,352.592407 440.504059,351.025269 
	C441.672302,349.316956 441.303833,346.555176 441.596680,344.251495 
	C441.973419,341.287933 442.330353,338.321747 442.732086,335.361603 
	C442.769623,335.084930 443.066986,334.843536 443.950348,333.554840 
	C446.271820,338.945679 443.460632,343.359497 443.256348,349.401154 
	C446.326385,346.544647 448.413330,344.382019 450.743073,342.523834 
	C452.001709,341.519928 453.675232,341.036255 455.453888,340.550232 
	C455.746155,340.782562 455.773865,340.691101 455.726562,340.684326 
z"/>
<path fill="#A481ED" opacity="1.000000" stroke="none" 
	d="
M178.791977,547.175537 
	C176.602859,551.579712 174.095963,556.119568 171.307190,560.845337 
	C173.508270,556.457947 175.991226,551.884644 178.791977,547.175537 
z"/>
<path fill="#A481ED" opacity="1.000000" stroke="none" 
	d="
M169.930939,562.314087 
	C168.387451,565.726501 166.499100,569.197998 164.328568,572.851562 
	C165.892960,569.480103 167.739517,565.926575 169.930939,562.314087 
z"/>
<path fill="#A481ED" opacity="1.000000" stroke="none" 
	d="
M163.697327,573.093567 
	C162.897293,575.255737 161.749374,577.468384 160.316422,579.857666 
	C161.137405,577.737488 162.243423,575.440796 163.697327,573.093567 
z"/>
<path fill="#A481ED" opacity="1.000000" stroke="none" 
	d="
M159.694519,580.076782 
	C158.990387,582.006348 157.942444,583.986023 156.606293,586.114868 
	C157.328964,584.218384 158.339844,582.172607 159.694519,580.076782 
z"/>
<path fill="#A481ED" opacity="1.000000" stroke="none" 
	d="
M602.648193,592.917542 
	C601.443542,591.426208 600.218262,589.578003 598.948853,587.382568 
	C600.145630,588.877075 601.386536,590.718933 602.648193,592.917542 
z"/>
<path fill="#A481ED" opacity="1.000000" stroke="none" 
	d="
M154.895111,588.286072 
	C154.466248,589.741638 153.689026,591.281616 152.653503,593.009155 
	C153.112381,591.588013 153.829559,589.979248 154.895111,588.286072 
z"/>
<path fill="#A481ED" opacity="1.000000" stroke="none" 
	d="
M156.011917,586.373291 
	C156.125488,586.827026 155.927765,587.344971 155.492706,588.014221 
	C155.403763,587.589539 155.552185,587.013489 156.011917,586.373291 
z"/>
<path fill="#A481ED" opacity="1.000000" stroke="none" 
	d="
M170.808014,561.140686 
	C170.926956,561.328979 170.820587,561.642090 170.495422,562.080627 
	C170.378632,561.892578 170.480667,561.578979 170.808014,561.140686 
z"/>
<path fill="#A481ED" opacity="1.000000" stroke="none" 
	d="
M152.144333,593.321716 
	C152.339264,593.361389 152.382828,593.590332 152.349945,593.701172 
	C152.094940,593.718018 151.872833,593.623901 151.650711,593.529846 
	C151.750275,593.447266 151.849838,593.364624 152.144333,593.321716 
z"/>
<path fill="#A481ED" opacity="1.000000" stroke="none" 
	d="
M602.829773,593.781677 
	C602.629700,593.770813 602.582947,593.566833 602.608459,593.467407 
	C602.765930,593.509521 602.897888,593.651062 602.829773,593.781677 
z"/>
<path fill="#0D0D0D" opacity="1.000000" stroke="none" 
	d="
M454.257874,394.530151 
	C456.095459,399.474670 457.795105,404.038940 459.960266,409.853455 
	C461.525055,405.059570 463.092407,401.594818 463.733276,397.966431 
	C464.594330,393.091522 467.035889,391.231934 471.806641,392.090027 
	C472.769897,392.263306 473.776489,392.195740 473.692291,392.192047 
	C473.400299,396.690979 472.656799,401.059143 472.968079,405.350830 
	C473.277161,409.612762 470.641907,414.596588 476.029114,418.537415 
	C471.968964,418.537415 468.523529,418.537415 466.267242,418.537415 
	C466.587006,413.066376 466.920654,407.358093 467.254272,401.649841 
	C466.907013,401.556671 466.559753,401.463531 466.212463,401.370392 
	C464.609741,406.213928 463.089996,411.087708 461.345276,415.879547 
	C460.915466,417.059967 459.752960,417.973602 458.927246,419.009857 
	C458.012482,418.049042 456.720093,417.243652 456.249542,416.100067 
	C454.389648,411.580292 452.787415,406.954498 450.553009,402.501953 
	C451.270447,407.781128 447.547607,413.618225 453.254303,418.614685 
	C450.022614,418.614685 447.213501,418.614685 444.400604,418.612610 
	C447.777283,413.929749 447.743317,396.798828 443.424988,392.197845 
	C447.665741,392.883514 451.251862,389.900116 454.257874,394.530151 
z"/>
<path fill="#101010" opacity="1.000000" stroke="none" 
	d="
M283.065369,463.205261 
	C283.781403,463.406006 284.831726,463.317505 284.967834,462.917755 
	C286.358765,458.832123 287.601166,454.695923 288.953369,450.354492 
	C287.969025,449.659515 286.957520,448.945404 285.028625,447.583557 
	C288.866302,447.583557 291.682220,447.583557 293.431458,447.583557 
	C290.843140,454.930908 288.146851,462.882660 285.175537,470.730225 
	C284.671997,472.060150 282.985779,472.942261 281.845947,474.031250 
	C280.914642,472.902557 279.587341,471.914825 279.125946,470.618835 
	C277.715393,466.656891 276.637848,462.576416 275.325562,458.190491 
	C271.179932,463.366089 272.978485,471.334747 265.798065,475.130554 
	C262.750336,465.127930 260.060089,456.298462 257.359497,447.435089 
	C259.863281,447.435089 263.339569,447.435089 266.650146,447.435089 
	C263.272461,454.017303 268.290771,459.073730 269.670563,464.818298 
	C271.134552,459.817047 272.516571,454.789124 274.128387,449.835968 
	C274.470337,448.785187 275.651001,448.007263 276.445221,447.103638 
	C277.360718,448.021942 278.730927,448.783478 279.111115,449.886292 
	C280.571289,454.122040 281.714111,458.467194 283.065369,463.205261 
z"/>
<path fill="#101010" opacity="1.000000" stroke="none" 
	d="
M393.093872,448.629883 
	C397.631775,452.788086 397.528076,455.320862 394.125671,458.576294 
	C395.257996,462.336761 397.175659,465.486755 396.849609,468.384369 
	C396.372681,472.623077 392.199829,473.677307 388.466980,473.899323 
	C383.852051,474.173767 379.208374,473.964966 374.440216,473.964966 
	C377.703979,468.362427 377.593964,451.601837 373.192780,446.546356 
	C380.572113,447.255432 386.667694,447.841156 393.093872,448.629883 
M389.991333,469.695496 
	C392.084076,463.466858 390.069336,461.039703 382.941040,461.480560 
	C382.941040,464.675140 382.941040,467.880798 382.941040,471.838379 
	C385.391510,471.255859 387.389587,470.780853 389.991333,469.695496 
M382.631470,456.106384 
	C382.645996,460.030914 385.658081,459.085541 387.042633,458.048279 
	C388.534393,456.930695 390.294952,453.513245 389.771179,452.873535 
	C388.328369,451.111481 385.752594,450.277100 382.632050,448.515076 
	C382.632050,451.949310 382.632050,453.578033 382.631470,456.106384 
z"/>
<path fill="#0E0E0E" opacity="1.000000" stroke="none" 
	d="
M351.152100,392.104309 
	C352.984222,392.182465 354.397217,392.260529 354.976868,392.292542 
	C351.449188,400.985138 354.501434,410.025574 353.003906,418.644073 
	C349.204071,419.937500 346.647705,418.884949 344.810272,414.976044 
	C342.783630,410.664612 340.107330,406.658569 337.250977,402.606201 
	C337.654633,407.890717 334.504913,413.524261 339.620575,418.666565 
	C336.595337,418.666565 333.909363,418.666565 331.650238,418.666565 
	C333.995392,410.152618 333.585876,401.613190 331.927185,392.746307 
	C336.824188,390.908508 338.299133,391.395386 341.150208,396.356659 
	C343.741211,400.865417 346.364105,405.355865 349.478455,409.666412 
	C348.892609,404.042938 352.116119,398.031921 347.134552,392.590973 
	C348.367859,392.424164 349.550415,392.264191 351.152100,392.104309 
z"/>
<path fill="#0F0F0F" opacity="1.000000" stroke="none" 
	d="
M451.839020,470.274780 
	C452.772461,471.525177 453.650452,472.355743 455.110077,473.736481 
	C451.550629,473.736481 448.817261,473.736481 446.031403,473.736481 
	C448.931183,468.998138 448.908234,451.791626 446.045441,447.938416 
	C452.672150,446.027557 453.233276,446.251251 456.471222,451.916718 
	C458.934448,456.226624 461.426819,460.519836 464.021820,465.020996 
	C465.956085,458.038269 465.175110,450.789917 461.849518,447.545105 
	C465.107483,447.545105 467.936829,447.545105 470.371674,447.545105 
	C465.891266,455.727295 469.753448,464.837646 467.914764,473.636536 
	C464.134094,474.911530 461.542480,473.884796 459.673401,469.751221 
	C457.736023,465.466583 455.017914,461.534973 451.783600,457.646790 
	C451.783600,461.716156 451.783600,465.785522 451.839020,470.274780 
z"/>
<path fill="#151515" opacity="1.000000" stroke="none" 
	d="
M437.601135,392.108459 
	C437.446533,394.554169 436.574280,396.954529 436.327301,399.417572 
	C436.029724,402.385620 436.301117,405.407410 436.259644,408.405029 
	C436.129883,417.782349 429.338959,422.311737 420.811859,418.183929 
	C418.603424,417.114838 416.632294,413.981659 416.070679,411.458588 
	C415.257263,407.804199 416.036102,403.825134 415.728546,400.017487 
	C415.533997,397.609009 414.598175,395.260437 413.897491,392.501709 
	C416.811066,392.501709 420.564240,392.501709 423.567993,392.501709 
	C422.965546,395.088898 422.068085,397.528839 421.894073,400.019318 
	C421.627808,403.829895 421.839905,407.675537 421.887634,411.505829 
	C421.928589,414.794189 423.831421,416.371460 426.921906,416.466309 
	C430.044220,416.562164 432.063141,415.029755 432.168488,411.763611 
	C432.329437,406.772400 432.486053,401.767456 432.253693,396.786560 
	C432.193878,395.504578 430.673004,394.290741 429.171875,392.090912 
	C432.145416,392.090912 434.652924,392.090912 437.601135,392.108459 
z"/>
<path fill="#151515" opacity="1.000000" stroke="none" 
	d="
M476.295654,458.464233 
	C478.438019,448.603058 486.223785,444.044983 493.842041,448.120148 
	C495.356110,448.930115 496.286346,451.268921 496.866943,453.099060 
	C497.024963,453.597137 494.986877,455.378906 493.843353,455.499847 
	C493.060028,455.582672 491.981445,453.884094 491.215149,452.848419 
	C490.365723,451.700348 489.649445,449.333435 489.002228,449.377167 
	C487.397430,449.485626 485.413879,450.283600 484.392975,451.490326 
	C481.906158,454.429871 481.749054,465.787964 484.342926,468.765686 
	C485.785614,470.421844 488.402710,471.054993 490.490509,472.149170 
	C491.037201,471.663666 491.583893,471.178192 492.130615,470.692688 
	C491.439667,467.518585 490.748749,464.344513 489.968292,460.759033 
	C491.636871,460.631042 494.337646,460.423889 497.715637,460.164795 
	C497.715637,463.390503 497.981750,466.201813 497.603973,468.923798 
	C497.413666,470.294708 496.355743,472.046936 495.176971,472.699188 
	C486.126312,477.707123 477.308777,473.066132 476.250214,462.873413 
	C476.113556,461.557404 476.241516,460.213959 476.295654,458.464233 
z"/>
<path fill="#151515" opacity="1.000000" stroke="none" 
	d="
M301.272461,458.075897 
	C300.962280,454.225891 300.652374,450.860229 300.325531,447.310669 
	C305.501007,447.310669 311.754028,447.310669 318.567139,447.310669 
	C318.667267,449.412231 318.765533,451.474396 318.903564,454.371643 
	C314.644501,453.292725 312.626038,446.672180 307.438049,450.669586 
	C307.438049,452.990295 307.438049,455.618378 307.438049,459.450775 
	C310.082092,458.370239 312.375153,457.433167 314.905334,456.399170 
	C314.905334,458.887756 314.905334,461.644287 314.905334,464.499237 
	C312.486572,463.206696 310.381195,462.081604 307.553467,460.570526 
	C307.553467,464.738098 307.553467,467.675964 307.553467,470.669189 
	C312.858917,473.700043 315.529510,469.986450 317.584320,464.733643 
	C317.940002,465.252289 318.295685,465.770966 318.651367,466.289612 
	C318.651367,468.651062 318.651367,471.012512 318.651367,473.710205 
	C312.282837,473.710205 305.741974,473.710205 300.469513,473.710205 
	C300.739014,468.626526 301.005859,463.593384 301.272461,458.075897 
z"/>
<path fill="#101010" opacity="1.000000" stroke="none" 
	d="
M420.395325,447.100586 
	C421.565674,449.198547 422.298248,451.291229 423.442719,454.560425 
	C418.875763,452.192749 415.598724,450.493805 411.344849,448.288452 
	C411.344849,452.867218 411.344849,455.782959 411.344849,459.649658 
	C413.893402,458.509430 416.079529,457.531342 418.591614,456.407440 
	C418.591614,458.903442 418.591614,461.636200 418.591614,464.364594 
	C416.282837,463.194305 414.012268,462.043365 411.245178,460.640747 
	C411.245178,464.858612 411.245178,467.979858 411.245178,470.822144 
	C417.051514,474.131348 418.902039,468.459534 422.621338,465.008240 
	C422.621338,468.753876 422.621338,471.121735 422.621338,473.759796 
	C415.927612,473.759796 409.524902,473.759796 403.829529,473.759796 
	C405.831177,465.000885 405.501282,456.298126 404.057709,447.095367 
	C408.773346,447.095367 414.365479,447.095367 420.395325,447.100586 
z"/>
<path fill="#0F0F0F" opacity="1.000000" stroke="none" 
	d="
M324.618591,416.618011 
	C324.742004,417.583923 324.567444,418.912170 324.329956,418.923492 
	C321.361115,419.065430 318.383087,419.016449 316.848663,418.384705 
	C316.445221,415.965820 316.636169,411.870361 315.515900,411.473175 
	C313.101379,410.617157 309.517731,410.867126 307.371582,412.204071 
	C305.902252,413.119385 303.950684,417.189331 308.861908,418.562164 
	C305.999115,418.562164 303.136292,418.562164 301.074677,418.562164 
	C302.820312,414.230743 304.701477,409.680115 306.486328,405.092010 
	C307.624878,402.165253 308.442383,399.100922 309.751404,396.258331 
	C310.468384,394.701447 311.907410,393.477112 313.020813,392.102814 
	C314.301025,393.529358 316.087341,394.748383 316.772217,396.419006 
	C319.466736,402.991669 321.814728,409.706390 324.618591,416.618011 
M310.606995,408.086792 
	C311.983002,407.987946 313.359039,407.889069 315.008728,407.770569 
	C313.975220,404.744385 313.109070,402.208313 312.242950,399.672272 
	C311.794952,399.738892 311.346954,399.805542 310.898956,399.872192 
	C310.519226,402.597626 310.139526,405.323029 310.606995,408.086792 
z"/>
<path fill="#0D0D0D" opacity="1.000000" stroke="none" 
	d="
M291.283875,399.442810 
	C290.182709,397.483887 289.375061,395.817474 288.567444,394.151062 
	C287.082458,394.927246 285.597443,395.703430 284.112427,396.479614 
	C285.114258,398.202026 285.788818,400.291626 287.202606,401.551819 
	C288.884399,403.050751 291.829132,403.368011 293.085724,405.049744 
	C294.700531,407.210876 296.111664,410.312805 295.859314,412.834198 
	C295.652496,414.900269 293.161377,417.907379 291.187805,418.365753 
	C287.831085,419.145386 284.009796,418.593353 280.551666,417.835114 
	C279.591492,417.624573 278.844513,414.736725 278.743713,413.033142 
	C278.693573,412.185638 280.326233,411.238556 281.524994,409.997650 
	C282.160187,411.511139 282.436157,411.944092 282.522308,412.412018 
	C282.948914,414.729614 283.188812,417.478363 286.470428,416.861664 
	C287.943756,416.584778 290.413879,414.795410 290.282990,414.092377 
	C289.908936,412.083252 288.730377,409.999542 287.299194,408.481659 
	C286.125397,407.236755 283.623169,407.155396 282.623108,405.855591 
	C280.949066,403.679749 278.884003,400.850128 279.083649,398.471954 
	C279.261993,396.347687 282.007446,393.223663 284.107178,392.763550 
	C287.180389,392.090179 290.772064,393.115540 293.958435,394.047455 
	C294.871979,394.314636 295.149475,396.756805 295.718628,398.201691 
	C294.338226,398.712921 292.957825,399.224121 291.283875,399.442810 
z"/>
<path fill="#0C0C0C" opacity="1.000000" stroke="none" 
	d="
M402.546021,394.951752 
	C401.412201,395.697815 400.136139,396.454102 400.110077,397.251282 
	C399.930511,402.743256 399.837677,408.252716 400.117981,413.736053 
	C400.200043,415.341492 401.581665,416.880463 402.474335,418.662964 
	C398.912933,418.662964 395.116058,418.662964 391.227051,418.662964 
	C394.538605,414.940063 394.758087,412.927643 393.824799,395.506256 
	C391.568604,395.189362 391.568604,395.189362 386.225983,400.415253 
	C386.032349,397.339691 385.879059,394.904694 385.710907,392.234009 
	C393.398407,392.234009 400.647461,392.234009 407.914703,392.234009 
	C407.914703,394.823853 407.914703,397.203186 407.914703,401.089050 
	C405.681152,398.323151 404.331665,396.652039 402.546021,394.951752 
z"/>
<path fill="#101010" opacity="1.000000" stroke="none" 
	d="
M375.365845,392.166382 
	C377.156647,393.102997 378.925415,393.677490 379.819916,394.894562 
	C380.516296,395.842041 380.568970,397.785492 380.070526,398.917755 
	C379.693085,399.775269 377.710632,400.730865 376.957642,400.414917 
	C376.014404,400.019165 375.616241,398.356323 374.949524,397.260681 
	C374.323242,396.231506 373.629425,394.375610 373.008118,394.393219 
	C371.743439,394.429108 370.116852,395.175537 369.333679,396.173828 
	C367.057098,399.075623 366.881531,411.352234 369.527435,413.943176 
	C371.049164,415.433380 374.044373,415.749390 376.421539,415.905670 
	C377.744873,415.992676 379.161072,414.667755 381.191315,413.650543 
	C376.876434,420.876923 367.200226,421.099396 363.114807,414.809784 
	C360.125977,410.208313 360.244202,400.645233 363.398560,396.206085 
	C366.278656,392.152954 370.461731,391.636902 375.365845,392.166382 
z"/>
<path fill="#0D0D0D" opacity="1.000000" stroke="none" 
	d="
M341.851898,467.015015 
	C342.965607,467.146606 344.569153,467.542877 344.624084,468.093597 
	C344.801025,469.867920 344.407288,471.699158 344.209930,473.754578 
	C337.680969,473.754578 331.330963,473.754578 324.811432,473.754578 
	C327.892059,469.248291 327.803192,451.735107 324.543152,447.502289 
	C328.365997,447.502289 331.901794,447.502289 335.365509,447.502289 
	C332.622589,451.516785 331.987335,458.442200 333.310944,471.271729 
	C336.817047,471.501038 340.652100,472.711212 341.851898,467.015015 
z"/>
<path fill="#0C0C0C" opacity="1.000000" stroke="none" 
	d="
M351.947113,453.498688 
	C351.354126,451.346893 350.761841,449.637634 350.048279,447.578461 
	C353.354950,447.578461 356.938477,447.578461 359.833221,447.578461 
	C355.973022,455.012238 358.939056,463.104218 357.805176,470.588684 
	C363.751801,474.184174 365.747040,468.845795 369.340668,464.626343 
	C369.340668,468.775146 369.340668,471.129150 369.340668,473.753479 
	C362.680573,473.753479 356.333374,473.753479 349.851501,473.753479 
	C353.825897,467.298157 351.142883,460.444733 351.947113,453.498688 
z"/>
<path fill="#1D1D1D" opacity="1.000000" stroke="none" 
	d="
M409.927765,568.909668 
	C412.785980,573.196106 415.449249,577.172546 418.177917,581.246582 
	C421.780029,575.906311 416.760559,568.218750 423.678925,562.889465 
	C425.625061,570.174438 427.273865,576.346558 428.922699,582.518616 
	C428.244751,582.731079 427.566833,582.943481 426.888885,583.155884 
	C425.510590,578.687988 424.132294,574.220093 422.370453,568.508911 
	C421.944946,573.852234 421.686798,577.969604 421.240692,582.066589 
	C421.132111,583.063354 420.405548,583.992737 419.963135,584.953125 
	C418.898804,584.407288 417.507446,584.121033 416.830078,583.267944 
	C414.592010,580.449219 412.611847,577.425720 410.532654,574.480896 
	C410.210754,574.734741 409.888855,574.988586 409.566956,575.242432 
	C410.620728,579.066711 411.674530,582.890991 412.798370,586.969543 
	C409.577515,586.032715 407.310760,579.927002 405.669464,568.599609 
	C407.082520,568.599609 408.407654,568.599609 409.927765,568.909668 
z"/>
<path fill="#1D1D1D" opacity="1.000000" stroke="none" 
	d="
M422.239685,334.851257 
	C423.779114,333.204590 425.040161,330.929535 426.936859,330.089417 
	C428.805115,329.261841 431.415039,329.484589 433.519073,329.993195 
	C435.523743,330.477753 437.295410,331.926056 439.715424,333.249115 
	C437.923737,337.793823 436.388977,342.883636 433.889404,347.444733 
	C432.873901,349.297821 429.694733,351.073334 427.617462,350.947418 
	C425.187317,350.800140 422.682587,348.777130 420.654114,347.047333 
	C420.064240,346.544312 420.994629,344.258514 422.412262,342.952881 
	C422.412262,340.555481 422.412262,338.158051 422.354065,335.295197 
	C422.295837,334.829773 422.239685,334.851257 422.239685,334.851257 
M431.403473,331.325073 
	C426.444489,331.617828 425.214905,335.145203 425.118256,339.139008 
	C425.032257,342.692535 428.770020,344.620605 431.793549,342.890289 
	C435.926086,340.525269 436.101288,334.585571 431.403473,331.325073 
M425.965912,348.812042 
	C427.847198,348.260193 429.728516,347.708374 431.609833,347.156525 
	C431.410217,346.763947 431.210632,346.371368 431.011047,345.978790 
	C428.396027,345.216522 425.780975,344.454254 421.554901,343.222382 
	C423.238068,345.638947 424.217926,347.045746 425.965912,348.812042 
z"/>
<path fill="#0E0E0E" opacity="1.000000" stroke="none" 
	d="
M431.132233,464.835205 
	C431.132507,461.200531 431.361328,458.017303 431.059204,454.885315 
	C430.824921,452.456970 429.927124,450.092651 429.262054,447.452820 
	C432.194702,447.452820 435.913544,447.452820 438.471375,447.452820 
	C438.033234,451.654327 437.125061,456.034698 437.248840,460.385712 
	C437.374176,464.791351 435.013428,469.885406 440.697723,473.732483 
	C436.083862,473.732483 432.359680,473.732483 429.371887,473.732483 
	C429.937561,471.025360 430.534821,468.167053 431.132233,464.835205 
z"/>
<path fill="#212121" opacity="1.000000" stroke="none" 
	d="
M488.938507,543.327698 
	C484.579681,543.624512 481.558960,541.528687 479.862335,537.729980 
	C476.983521,531.284180 483.531616,529.615234 486.340851,525.426758 
	C490.050140,528.911194 493.771271,532.154785 497.186768,535.693420 
	C500.012817,538.621338 499.313232,541.815491 496.736633,544.560791 
	C494.503601,546.940125 491.989258,548.801331 489.333008,545.221313 
	C491.865112,543.916626 494.483887,543.527954 495.844421,542.010803 
	C496.708160,541.047668 495.700836,538.406555 495.572998,536.971375 
	C493.105255,539.335632 491.021881,541.331665 488.938507,543.327698 
M483.199768,538.034546 
	C485.352631,538.893921 487.455750,540.053650 489.689697,540.423767 
	C490.332550,540.530273 492.292877,538.004517 492.026245,537.299683 
	C491.168304,535.031982 489.875702,532.684570 488.093658,531.113098 
	C487.191437,530.317505 483.769043,530.590027 483.421570,531.311646 
	C482.585571,533.047729 482.891174,535.333496 483.199768,538.034546 
z"/>
<path fill="#1E1E1E" opacity="1.000000" stroke="none" 
	d="
M340.994568,578.002258 
	C337.970551,576.612061 335.006165,575.621521 331.838837,574.563171 
	C330.650238,577.401428 329.594421,579.922668 328.538605,582.443848 
	C327.938019,582.222961 327.337433,582.002075 326.736847,581.781189 
	C328.542816,575.657654 330.348755,569.534058 332.154694,563.410461 
	C332.796356,563.543701 333.438019,563.676941 334.079651,563.810242 
	C333.545166,566.606384 333.010681,569.402527 332.426483,572.458679 
	C335.373657,573.376770 338.344635,574.302307 341.763245,575.367249 
	C342.849579,572.491394 343.890411,569.735962 344.931213,566.980530 
	C345.627533,567.217712 346.323883,567.454834 347.020203,567.691956 
	C345.168152,573.882385 343.316101,580.072754 341.464050,586.263184 
	C340.772858,586.081421 340.081665,585.899658 339.390472,585.717834 
	C339.945068,583.279236 340.499664,580.840576 340.994568,578.002258 
z"/>
<path fill="#212121" opacity="1.000000" stroke="none" 
	d="
M364.909485,334.194214 
	C362.276672,337.570923 358.736481,339.200592 355.639740,336.861847 
	C353.365662,335.144348 351.771484,331.597229 351.306580,328.640320 
	C350.674286,324.618866 354.287781,321.112152 358.165131,320.988617 
	C363.344360,320.823547 364.869720,324.263977 365.508881,329.068756 
	C361.895966,329.681885 358.369293,330.280334 353.322540,331.136780 
	C355.545288,333.109406 356.743286,334.997009 358.194733,335.217712 
	C359.518707,335.419037 361.122803,333.823059 362.593048,333.000641 
	C363.430878,332.531891 364.247894,332.025940 365.074280,331.536743 
	C365.068207,332.316498 365.062164,333.096252 364.909485,334.194214 
M361.806122,327.571716 
	C362.602722,324.438293 360.646912,322.830902 358.195435,323.291962 
	C356.467346,323.617004 355.108124,325.903412 353.584229,327.314117 
	C353.935760,327.688873 354.287262,328.063629 354.638794,328.438354 
	C356.752502,328.231262 358.866211,328.024170 361.806122,327.571716 
z"/>
<path fill="#1E1E1E" opacity="1.000000" stroke="none" 
	d="
M390.155701,590.131226 
	C386.458893,591.409241 383.185120,590.492371 382.267456,587.414795 
	C381.376007,584.425049 381.257690,580.245544 382.763916,577.796326 
	C384.023315,575.748474 388.119751,575.445435 390.959839,574.369751 
	C391.226349,574.840332 391.492828,575.310852 391.759338,575.781433 
	C391.856659,573.602478 391.953979,571.423523 392.051331,569.244568 
	C392.693237,569.206787 393.335144,569.169067 393.977051,569.131348 
	C394.489655,575.904297 395.002228,582.677246 395.502747,589.291260 
	C393.544128,589.585327 392.036652,589.811646 390.155701,590.131226 
M391.750549,579.292236 
	C390.010803,576.949219 387.311218,575.687317 385.541504,578.095886 
	C384.149902,579.989746 384.056183,583.298035 384.437103,585.819275 
	C384.602142,586.911682 387.409912,587.604797 389.017365,588.479248 
	C390.135376,586.340576 391.320923,584.232666 392.319702,582.039673 
	C392.543793,581.547607 392.114594,580.758057 391.750549,579.292236 
z"/>
<path fill="#212121" opacity="1.000000" stroke="none" 
	d="
M273.867188,534.550232 
	C279.004517,533.151367 281.784210,535.417969 283.485809,539.716125 
	C285.202209,538.356018 286.962677,536.960999 288.723114,535.565979 
	C289.171265,536.052063 289.619415,536.538147 290.067596,537.024231 
	C285.425690,541.913452 280.783783,546.802673 275.282715,552.596741 
	C272.630707,548.506226 269.569702,545.218140 268.449829,541.365784 
	C267.989349,539.781738 271.709381,536.982483 273.867188,534.550232 
M276.065369,546.913391 
	C277.541718,545.652771 279.357758,544.625366 280.418854,543.079651 
	C282.244812,540.419800 280.857819,536.852234 277.940582,536.511292 
	C274.287140,536.084351 271.994293,538.319641 271.043304,541.544495 
	C270.041473,544.941772 271.619537,546.925415 276.065369,546.913391 
z"/>
<path fill="#1D1D1D" opacity="1.000000" stroke="none" 
	d="
M319.962280,336.087097 
	C320.405365,331.418762 322.863647,329.035278 327.040161,328.797333 
	C331.316742,328.553711 332.958771,331.555084 334.203156,335.383423 
	C332.325623,336.080750 330.656128,336.678955 329.003571,337.320648 
	C327.319244,337.974670 325.651520,338.671417 323.897247,339.381561 
	C325.027557,342.550415 327.237762,344.076385 330.034424,342.520081 
	C331.766815,341.556091 332.700378,339.156525 334.755707,336.364746 
	C335.158142,341.828156 333.044647,344.047089 329.563538,345.029999 
	C326.133789,345.998444 323.278931,344.868530 321.646790,341.605865 
	C320.851379,340.015778 320.505890,338.200623 319.962280,336.087097 
M323.211304,333.057373 
	C323.086426,334.290527 322.961578,335.523651 322.769836,337.417236 
	C325.889404,336.256439 328.353729,335.339447 331.077484,334.325928 
	C328.908539,330.695007 326.706970,329.728333 323.211304,333.057373 
z"/>
<path fill="#1B1B1B" opacity="1.000000" stroke="none" 
	d="
M397.232910,329.608276 
	C395.637024,335.374878 392.513611,337.708466 388.016174,336.822205 
	C383.623474,335.956573 381.366394,332.527191 381.871185,327.485474 
	C382.324249,322.960480 385.521057,319.969971 389.740204,320.124237 
	C394.599060,320.301880 396.929901,323.117035 397.232910,329.608276 
M387.963593,334.491150 
	C392.666931,334.465057 394.852478,332.172180 394.453186,327.572113 
	C394.175323,324.371277 392.674042,322.149811 389.158752,322.391724 
	C385.830566,322.620789 383.766388,326.942932 385.031738,331.073425 
	C385.380676,332.212524 386.491882,333.118073 387.963593,334.491150 
z"/>
<path fill="#1B1B1B" opacity="1.000000" stroke="none" 
	d="
M422.322021,334.815033 
	C421.717773,335.324677 420.911163,335.734894 420.485382,336.391876 
	C417.620575,340.812531 414.319824,341.983032 410.024048,339.990662 
	C406.226959,338.229614 404.742676,334.289520 406.204285,329.850891 
	C407.570709,325.701355 411.024780,323.432648 414.904449,324.136505 
	C419.467377,324.964325 421.679352,327.962585 421.504395,333.103638 
	C421.487579,333.597809 421.393341,334.089386 421.787384,334.716705 
	C422.239685,334.851257 422.295837,334.829773 422.322021,334.815033 
M410.440308,337.757874 
	C413.221161,339.396606 416.023712,339.002625 417.174072,336.148651 
	C418.118927,333.804565 418.101562,330.769775 417.520935,328.271118 
	C417.305786,327.345276 413.157501,326.143188 412.717285,326.669159 
	C410.961487,328.767151 409.777466,331.426971 408.788757,334.033234 
	C408.489319,334.822601 409.502594,336.110046 410.440308,337.757874 
z"/>
<path fill="#232323" opacity="1.000000" stroke="none" 
	d="
M288.350952,561.327881 
	C288.646454,554.692261 290.709839,554.061890 299.099762,557.654663 
	C301.268585,553.820618 301.268585,553.820618 293.359741,552.695312 
	C296.084320,549.801270 297.791077,549.570557 300.680634,551.710205 
	C303.226379,553.595276 303.832672,555.849976 302.020874,558.594849 
	C300.202179,561.350037 298.408661,564.121826 296.430237,567.152771 
	C293.730164,565.272339 291.135956,563.465637 288.350952,561.327881 
M295.688385,558.207642 
	C294.881134,558.043762 293.948792,557.548767 293.296448,557.795227 
	C292.365356,558.146790 290.908417,559.137634 290.980194,559.684143 
	C291.123474,560.774963 292.008179,562.428650 292.852173,562.609253 
	C294.056183,562.866882 295.601776,562.186340 296.768402,561.506470 
	C297.067413,561.332214 296.491516,559.656555 295.688385,558.207642 
z"/>
<path fill="#1E1E1E" opacity="1.000000" stroke="none" 
	d="
M494.098755,514.944275 
	C498.062653,513.555786 499.874908,515.057861 502.787292,517.665344 
	C505.801544,520.364075 506.841217,522.024902 505.166656,525.148376 
	C503.301971,528.626404 500.402313,530.044373 496.438080,528.173096 
	C491.961884,526.060059 489.734192,521.975342 491.362732,518.235718 
	C491.869507,517.071899 492.936798,516.152222 494.098755,514.944275 
M493.191101,518.883667 
	C493.565308,520.524292 493.939545,522.164856 494.568939,524.924133 
	C496.862366,521.639587 498.247894,519.655212 499.633453,517.670837 
	C499.442932,517.231323 499.252441,516.791748 499.061920,516.352173 
	C497.229309,516.978149 495.396667,517.604126 493.191101,518.883667 
M497.270477,524.912720 
	C499.100281,525.046936 502.339996,525.700806 502.515381,525.225098 
	C503.267853,523.183960 503.118622,520.810364 503.298004,518.557922 
	C502.802429,518.466187 502.306885,518.374390 501.811340,518.282654 
	C500.404358,520.221985 498.997375,522.161377 497.270477,524.912720 
z"/>
<path fill="#232323" opacity="1.000000" stroke="none" 
	d="
M359.678894,584.808655 
	C358.996063,589.145386 355.981293,589.468689 352.714142,588.676453 
	C348.832062,587.734985 346.917603,583.908386 348.114624,579.586426 
	C349.173096,575.764893 351.323120,572.954163 355.846771,573.503906 
	C360.128601,574.024231 361.563263,576.638306 360.896118,582.831177 
	C357.736816,582.425049 354.561401,582.016846 350.236664,581.460876 
	C351.161255,583.511230 351.467468,585.685974 352.527985,586.154907 
	C353.787872,586.712097 355.709503,585.860901 357.317963,585.501892 
	C358.045959,585.339417 358.710236,584.891724 359.678894,584.808655 
M351.737061,577.420593 
	C352.232452,579.946106 352.232452,579.946106 358.583099,580.123962 
	C358.189667,575.116821 356.802521,574.399414 351.737061,577.420593 
z"/>
<path fill="#232323" opacity="1.000000" stroke="none" 
	d="
M432.825378,569.834106 
	C432.012543,569.099548 431.199707,568.364929 430.386902,567.630371 
	C432.172272,566.089844 433.760071,563.830688 435.813812,563.265930 
	C437.142273,562.900635 439.750000,564.620361 440.727264,566.102661 
	C442.517303,568.817810 443.524994,572.048767 445.079193,575.562744 
	C440.779724,575.415344 437.983978,582.265991 433.386200,577.404968 
	C432.427338,576.391174 433.561920,573.397278 434.246704,570.887451 
	C436.111267,569.596130 437.460846,568.733398 439.858582,567.200562 
	C437.639771,566.321228 435.609222,565.015930 435.151825,565.433594 
	C433.998505,566.486572 433.553955,568.315918 432.825378,569.834106 
M440.000854,575.492249 
	C440.149841,573.739136 440.298828,571.986023 440.447815,570.232910 
	C439.808563,570.000366 439.169281,569.767822 438.530029,569.535339 
	C437.360992,571.390076 436.191956,573.244812 435.022949,575.099548 
	C436.495728,575.393799 437.968506,575.688110 440.000854,575.492249 
z"/>
<path fill="#1B1B1B" opacity="1.000000" stroke="none" 
	d="
M477.499084,542.323486 
	C479.598816,544.716736 481.440430,546.843628 483.661591,549.408875 
	C479.537048,550.655701 478.520416,559.228271 472.507538,554.094116 
	C468.174927,550.394653 473.262970,547.507812 475.645386,543.969482 
	C474.523926,543.361633 472.543274,542.099182 472.426086,542.253357 
	C471.098145,544.000183 470.055450,545.963806 468.579285,548.477295 
	C466.818787,546.118530 467.283569,543.958435 469.193451,541.946228 
	C471.848511,539.148865 474.601227,538.941833 477.499084,542.323486 
M474.684540,552.768494 
	C476.114258,552.106873 478.412109,551.737854 478.758240,550.710999 
	C479.211090,549.367554 478.121368,547.504272 477.695190,545.864563 
	C476.970215,545.868225 476.245239,545.871887 475.520264,545.875488 
	C475.051392,547.971619 474.582520,550.067688 474.684540,552.768494 
z"/>
<path fill="#151515" opacity="1.000000" stroke="none" 
	d="
M369.447571,575.320435 
	C375.707245,575.580750 376.445251,576.346375 376.303131,582.025696 
	C376.240814,584.515564 376.133240,587.004517 376.014313,589.492371 
	C375.999664,589.798767 375.787659,590.095642 375.617249,590.521606 
	C372.098938,588.577087 365.134308,594.161560 364.728607,586.168579 
	C364.447052,580.621338 370.045288,582.121155 374.208801,581.165649 
	C373.634003,579.841919 372.949432,577.588013 372.629730,577.638611 
	C370.491394,577.977173 368.430817,578.806885 364.705536,580.004089 
	C366.695007,577.925110 367.882751,576.683960 369.447571,575.320435 
M369.285431,583.638367 
	C368.649872,584.915161 368.014282,586.191895 367.378662,587.468628 
	C368.517273,587.920044 370.131989,589.073242 370.702026,588.686523 
	C372.199615,587.670654 373.242371,585.984253 374.466309,584.565002 
	C374.203979,584.170898 373.941650,583.776733 373.679291,583.382629 
	C372.458130,583.382629 371.236969,583.382629 369.285431,583.638367 
z"/>
<path fill="#1B1B1B" opacity="1.000000" stroke="none" 
	d="
M308.514893,557.893127 
	C309.542847,558.295776 310.180756,559.033386 310.987091,559.385986 
	C319.678436,563.186523 319.696228,563.175354 315.467957,571.403381 
	C314.719635,572.859558 313.862823,574.262207 312.998322,575.653625 
	C312.890717,575.826843 312.426117,575.778320 310.752960,576.081299 
	C312.066345,573.111633 313.088684,570.822815 314.091644,568.525574 
	C315.032959,566.369629 317.277557,563.975708 314.066895,562.103210 
	C310.733459,560.159180 308.920837,562.694214 307.369690,565.173096 
	C306.049164,567.283447 304.817535,569.449402 303.546631,571.590820 
	C302.956604,571.208435 302.366547,570.826111 301.776520,570.443726 
	C303.918701,566.312256 306.060883,562.180786 308.514893,557.893127 
z"/>
<path fill="#232323" opacity="1.000000" stroke="none" 
	d="
M449.339844,568.806763 
	C451.030823,568.907471 452.402618,569.378906 453.470642,568.998230 
	C454.224792,568.729370 454.796448,567.344727 454.963226,566.374634 
	C455.018188,566.054810 453.597717,565.333252 452.765076,565.059753 
	C452.183655,564.868713 451.407379,565.309692 450.799805,565.152527 
	C448.611877,564.586609 446.458588,563.886780 444.292236,563.237549 
	C444.841309,561.483093 444.925537,559.312439 446.041748,558.065796 
	C448.017670,555.859070 450.340485,556.248474 454.561279,559.451477 
	C452.049469,559.210999 450.745636,558.762390 449.653778,559.068787 
	C448.456207,559.404907 447.454102,560.437500 446.366821,561.166565 
	C447.362122,561.772522 448.293213,562.630066 449.372864,562.906067 
	C450.259552,563.132690 451.494415,562.261597 452.273987,562.590454 
	C454.201141,563.403503 455.955658,564.625916 457.779541,565.683777 
	C456.595642,567.491028 455.786713,570.076416 454.119202,570.879944 
	C452.548767,571.636597 450.073334,570.515259 447.996033,570.220154 
	C448.294281,569.751160 448.592529,569.282227 449.339844,568.806763 
z"/>
<path fill="#1B1B1B" opacity="1.000000" stroke="none" 
	d="
M265.361267,524.147583 
	C261.826447,526.169556 258.678223,528.151978 255.530029,530.134460 
	C255.216980,529.796387 254.903946,529.458252 254.590912,529.120178 
	C257.305267,525.125366 261.846619,522.919006 265.614838,519.077454 
	C266.967957,523.474670 274.512238,524.297485 271.235321,530.229858 
	C269.243805,533.835266 265.361572,535.946045 261.991577,538.218994 
	C261.576294,537.662964 261.161041,537.106873 260.745758,536.550842 
	C262.929199,534.699951 265.159576,532.901062 267.285553,530.986389 
	C270.796448,527.824341 270.393890,526.127625 265.361267,524.147583 
z"/>
<path fill="#1B1B1B" opacity="1.000000" stroke="none" 
	d="
M377.941498,331.934937 
	C378.865967,333.328461 379.579285,334.391266 380.292603,335.454041 
	C379.913116,335.807800 379.533630,336.161560 379.154144,336.515320 
	C377.221405,334.461090 375.288666,332.406860 373.409698,330.409760 
	C371.850677,332.453644 370.206390,334.609314 368.562103,336.764984 
	C368.047760,336.394714 367.533417,336.024445 367.019073,335.654175 
	C368.547668,333.262909 370.076263,330.871643 371.815582,328.150787 
	C370.222321,325.906250 368.535217,323.529510 366.848114,321.152771 
	C367.229431,320.738190 367.610718,320.323578 367.992004,319.908966 
	C369.816742,321.732330 371.641479,323.555695 373.463593,325.376434 
	C375.093994,323.541077 376.906982,321.500153 378.720001,319.459198 
	C379.100616,319.798798 379.481232,320.138367 379.861847,320.477936 
	C378.305206,322.924652 376.748566,325.371399 375.099701,327.963043 
	C376.006378,329.217987 376.868378,330.411072 377.941498,331.934937 
z"/>
<path fill="#19181B" opacity="1.000000" stroke="none" 
	d="
M469.142029,556.033325 
	C468.749115,558.458557 468.733551,561.347290 467.309479,562.507935 
	C465.708588,563.812744 462.836517,563.557861 460.517456,563.981506 
	C460.440094,563.257812 460.362762,562.534180 460.285400,561.810486 
	C461.448212,561.810486 462.659943,562.016235 463.760651,561.754700 
	C464.945221,561.473267 466.143311,560.903015 467.095123,560.153503 
	C467.488312,559.843872 467.476868,558.171448 467.270966,558.091431 
	C466.148712,557.654602 464.916016,557.451660 463.704803,557.319397 
	C463.266357,557.271606 462.722137,557.881348 462.328949,557.782471 
	C460.273315,557.265503 458.250702,556.617065 456.216614,556.014343 
	C456.822357,554.126404 456.915558,551.741882 458.152405,550.465393 
	C460.069916,548.486328 462.707275,548.080444 465.805511,551.738342 
	C463.423126,551.506714 461.992340,550.956116 460.959290,551.378540 
	C459.842194,551.835266 459.096497,553.200439 458.188812,554.169373 
	C459.254425,554.640686 460.290314,555.413513 461.391724,555.522156 
	C463.876495,555.767212 466.393707,555.683838 469.142029,556.033325 
z"/>
<path fill="#1B1B1B" opacity="1.000000" stroke="none" 
	d="
M337.659973,321.145905 
	C338.199402,322.961853 339.057526,324.588654 340.088348,326.542847 
	C335.250763,330.635712 343.287628,336.129120 339.998230,342.288635 
	C339.113922,340.142700 338.256195,338.946014 338.169769,337.696014 
	C337.824646,332.702148 333.464294,328.694397 334.515991,323.536530 
	C334.893768,321.683868 336.733063,320.119751 337.989563,318.488831 
	C338.042419,318.420197 338.950012,319.010071 339.459412,319.293182 
	C338.965820,319.847687 338.472229,320.402222 337.659973,321.145905 
z"/>
<path fill="#212121" opacity="1.000000" stroke="none" 
	d="
M343.205444,322.271667 
	C343.117126,320.438934 343.117126,318.977722 343.117126,317.516510 
	C343.630981,317.488434 344.144806,317.460327 344.658661,317.432220 
	C346.486176,324.338074 348.313690,331.243958 350.290649,338.714508 
	C348.079498,340.246094 346.797058,338.424683 346.140900,335.688934 
	C345.103027,331.361633 344.234192,326.993835 343.205444,322.271667 
z"/>
<path fill="#1D1D1D" opacity="1.000000" stroke="none" 
	d="
M403.810913,316.150177 
	C403.672577,321.096466 403.062378,325.933990 402.640228,330.787872 
	C402.442139,333.065430 402.606323,335.374542 402.606323,339.022736 
	C401.218140,337.525665 399.162506,336.268463 399.286682,335.287018 
	C400.091919,328.922150 401.366486,322.616333 402.531403,316.299286 
	C402.556030,316.165710 403.109436,316.129669 403.810913,316.150177 
z"/>
<path fill="#1D1D1D" opacity="1.000000" stroke="none" 
	d="
M263.911621,514.705200 
	C259.298981,517.800476 254.979584,520.669861 250.660187,523.539185 
	C250.326767,523.053711 249.993362,522.568298 249.659943,522.082825 
	C254.047272,517.256042 260.150513,514.679993 265.194946,510.715118 
	C265.557892,511.048828 265.920837,511.382538 266.283783,511.716217 
	C265.590820,512.637207 264.897858,513.558228 263.911621,514.705200 
z"/>
<path fill="#1E1E1E" opacity="1.000000" stroke="none" 
	d="
M281.081421,555.848022 
	C283.893341,551.717224 286.837677,547.926208 289.782043,544.135193 
	C290.214172,549.074707 284.323730,556.094727 281.081421,555.848022 
z"/>
<path fill="#DCDCDC" opacity="1.000000" stroke="none" 
	d="
M488.929016,543.739258 
	C491.021881,541.331665 493.105255,539.335632 495.572998,536.971375 
	C495.700836,538.406555 496.708160,541.047668 495.844421,542.010803 
	C494.483887,543.527954 491.865112,543.916626 489.382935,544.877319 
	C488.964386,544.697937 488.941925,544.424377 488.929016,543.739258 
z"/>
<path fill="#EFEFEF" opacity="1.000000" stroke="none" 
	d="
M305.765472,334.834351 
	C308.328949,334.597931 310.540924,334.519409 312.752869,334.440857 
	C312.470734,336.291840 312.703827,338.491974 311.755432,339.891479 
	C310.880310,341.182861 308.737427,341.615173 306.607513,342.704926 
	C306.508148,339.724640 301.681396,338.316742 305.765472,334.834351 
z"/>
<path fill="#F5F5F5" opacity="1.000000" stroke="none" 
	d="
M389.689514,470.000671 
	C387.389587,470.780853 385.391510,471.255859 382.941040,471.838379 
	C382.941040,467.880798 382.941040,464.675140 382.941040,461.480560 
	C390.069336,461.039703 392.084076,463.466858 389.689514,470.000671 
z"/>
<path fill="#F2F2F2" opacity="1.000000" stroke="none" 
	d="
M382.631775,455.656586 
	C382.632050,453.578033 382.632050,451.949310 382.632050,448.515076 
	C385.752594,450.277100 388.328369,451.111481 389.771179,452.873535 
	C390.294952,453.513245 388.534393,456.930695 387.042633,458.048279 
	C385.658081,459.085541 382.645996,460.030914 382.631775,455.656586 
z"/>
<path fill="#E5E5E5" opacity="1.000000" stroke="none" 
	d="
M310.183411,408.067627 
	C310.139526,405.323029 310.519226,402.597626 310.898956,399.872192 
	C311.346954,399.805542 311.794952,399.738892 312.242950,399.672272 
	C313.109070,402.208313 313.975220,404.744385 315.008728,407.770569 
	C313.359039,407.889069 311.983002,407.987946 310.183411,408.067627 
z"/>
<path fill="#F5F5F5" opacity="1.000000" stroke="none" 
	d="
M431.765289,331.453552 
	C436.101288,334.585571 435.926086,340.525269 431.793549,342.890289 
	C428.770020,344.620605 425.032257,342.692535 425.118256,339.139008 
	C425.214905,335.145203 426.444489,331.617828 431.765289,331.453552 
z"/>
<path fill="#FDFDFD" opacity="1.000000" stroke="none" 
	d="
M425.581848,348.632294 
	C424.217926,347.045746 423.238068,345.638947 421.554901,343.222382 
	C425.780975,344.454254 428.396027,345.216522 431.011047,345.978790 
	C431.210632,346.371368 431.410217,346.763947 431.609833,347.156525 
	C429.728516,347.708374 427.847198,348.260193 425.581848,348.632294 
z"/>
<path fill="#F5F5F5" opacity="1.000000" stroke="none" 
	d="
M482.968018,537.716064 
	C482.891174,535.333496 482.585571,533.047729 483.421570,531.311646 
	C483.769043,530.590027 487.191437,530.317505 488.093658,531.113098 
	C489.875702,532.684570 491.168304,535.031982 492.026245,537.299683 
	C492.292877,538.004517 490.332550,540.530273 489.689697,540.423767 
	C487.455750,540.053650 485.352631,538.893921 482.968018,537.716064 
z"/>
<path fill="#EFEFEF" opacity="1.000000" stroke="none" 
	d="
M361.393005,327.694397 
	C358.866211,328.024170 356.752502,328.231262 354.638794,328.438354 
	C354.287262,328.063629 353.935760,327.688873 353.584229,327.314117 
	C355.108124,325.903412 356.467346,323.617004 358.195435,323.291962 
	C360.646912,322.830902 362.602722,324.438293 361.393005,327.694397 
z"/>
<path fill="#F5F5F5" opacity="1.000000" stroke="none" 
	d="
M391.868378,579.698853 
	C392.114594,580.758057 392.543793,581.547607 392.319702,582.039673 
	C391.320923,584.232666 390.135376,586.340576 389.017334,588.479248 
	C387.409912,587.604797 384.602142,586.911682 384.437103,585.819275 
	C384.056183,583.298035 384.149902,579.989746 385.541504,578.095886 
	C387.311218,575.687317 390.010803,576.949219 391.868378,579.698853 
z"/>
<path fill="#F5F5F5" opacity="1.000000" stroke="none" 
	d="
M275.669189,546.967529 
	C271.619537,546.925415 270.041473,544.941772 271.043304,541.544495 
	C271.994293,538.319641 274.287140,536.084351 277.940582,536.511292 
	C280.857819,536.852234 282.244812,540.419800 280.418854,543.079651 
	C279.357758,544.625366 277.541718,545.652771 275.669189,546.967529 
z"/>
<path fill="#F2F2F2" opacity="1.000000" stroke="none" 
	d="
M323.462219,332.732361 
	C326.706970,329.728333 328.908539,330.695007 331.077484,334.325928 
	C328.353729,335.339447 325.889404,336.256439 322.769836,337.417236 
	C322.961578,335.523651 323.086426,334.290527 323.462219,332.732361 
z"/>
<path fill="#F2F2F2" opacity="1.000000" stroke="none" 
	d="
M387.608459,334.310974 
	C386.491882,333.118073 385.380676,332.212524 385.031738,331.073425 
	C383.766388,326.942932 385.830566,322.620789 389.158752,322.391724 
	C392.674042,322.149811 394.175323,324.371277 394.453186,327.572113 
	C394.852478,332.172180 392.666931,334.465057 387.608459,334.310974 
z"/>
<path fill="#F2F2F2" opacity="1.000000" stroke="none" 
	d="
M410.177460,337.463623 
	C409.502594,336.110046 408.489319,334.822601 408.788757,334.033234 
	C409.777466,331.426971 410.961487,328.767151 412.717285,326.669159 
	C413.157501,326.143188 417.305786,327.345276 417.520935,328.271118 
	C418.101562,330.769775 418.118927,333.804565 417.174072,336.148651 
	C416.023712,339.002625 413.221161,339.396606 410.177460,337.463623 
z"/>
<path fill="#EFEFEF" opacity="1.000000" stroke="none" 
	d="
M296.002991,558.439148 
	C296.491516,559.656555 297.067413,561.332214 296.768402,561.506470 
	C295.601776,562.186340 294.056183,562.866882 292.852173,562.609253 
	C292.008179,562.428650 291.123474,560.774963 290.980194,559.684143 
	C290.908417,559.137634 292.365356,558.146790 293.296448,557.795227 
	C293.948792,557.548767 294.881134,558.043762 296.002991,558.439148 
z"/>
<path fill="#E5E5E5" opacity="1.000000" stroke="none" 
	d="
M493.377563,518.556885 
	C495.396667,517.604126 497.229309,516.978149 499.061920,516.352173 
	C499.252441,516.791748 499.442932,517.231323 499.633453,517.670837 
	C498.247894,519.655212 496.862366,521.639587 494.568939,524.924133 
	C493.939545,522.164856 493.565308,520.524292 493.377563,518.556885 
z"/>
<path fill="#FDFDFD" opacity="1.000000" stroke="none" 
	d="
M497.430420,524.506714 
	C498.997375,522.161377 500.404358,520.221985 501.811340,518.282654 
	C502.306885,518.374390 502.802429,518.466187 503.298004,518.557922 
	C503.118622,520.810364 503.267853,523.183960 502.515381,525.225098 
	C502.339996,525.700806 499.100281,525.046936 497.430420,524.506714 
z"/>
<path fill="#E5E5E5" opacity="1.000000" stroke="none" 
	d="
M351.947998,577.111145 
	C356.802521,574.399414 358.189667,575.116821 358.583099,580.123962 
	C352.232452,579.946106 352.232452,579.946106 351.947998,577.111145 
z"/>
<path fill="#E5E5E5" opacity="1.000000" stroke="none" 
	d="
M439.721069,575.737305 
	C437.968506,575.688110 436.495728,575.393799 435.022949,575.099548 
	C436.191956,573.244812 437.360992,571.390076 438.530029,569.535339 
	C439.169281,569.767822 439.808563,570.000366 440.447815,570.232910 
	C440.298828,571.986023 440.149841,573.739136 439.721069,575.737305 
z"/>
<path fill="#FDFDFD" opacity="1.000000" stroke="none" 
	d="
M433.137634,570.070496 
	C433.553955,568.315918 433.998505,566.486572 435.151825,565.433594 
	C435.609222,565.015930 437.639771,566.321228 439.858582,567.200562 
	C437.460846,568.733398 436.111267,569.596130 434.445312,570.578186 
	C433.902649,570.567322 433.676300,570.437134 433.137634,570.070496 
z"/>
<path fill="#E5E5E5" opacity="1.000000" stroke="none" 
	d="
M474.399078,552.466125 
	C474.582520,550.067688 475.051392,547.971619 475.520264,545.875488 
	C476.245239,545.871887 476.970215,545.868225 477.695190,545.864563 
	C478.121368,547.504272 479.211090,549.367554 478.758240,550.710999 
	C478.412109,551.737854 476.114258,552.106873 474.399078,552.466125 
z"/>
<path fill="#DCDCDC" opacity="1.000000" stroke="none" 
	d="
M369.650635,583.510498 
	C371.236969,583.382629 372.458130,583.382629 373.679291,583.382629 
	C373.941650,583.776733 374.203979,584.170898 374.466309,584.565002 
	C373.242371,585.984253 372.199615,587.670654 370.702026,588.686523 
	C370.131989,589.073242 368.517273,587.920044 367.378662,587.468628 
	C368.014282,586.191895 368.649872,584.915161 369.650635,583.510498 
z"/>
</svg>