<svg xmlns="http://www.w3.org/2000/svg" xmlns:xlink="http://www.w3.org/1999/xlink" width="500" zoomAndPan="magnify" viewBox="0 0 375 374.999991" height="500" preserveAspectRatio="xMidYMid meet" version="1.0"><defs><g/><clipPath id="7f668c413b"><path d="M 29.082031 6.722656 L 345.917969 6.722656 L 345.917969 281.101562 L 29.082031 281.101562 Z M 29.082031 6.722656 " clip-rule="nonzero"/></clipPath><clipPath id="fc0a8b7a08"><path d="M 29.082031 281.101562 L 187.5 6.722656 L 345.917969 281.101562 Z M 29.082031 281.101562 " clip-rule="nonzero"/></clipPath><clipPath id="7a25428f2d"><path d="M 46.226562 24.8125 L 328.773438 24.8125 L 328.773438 269.5 L 46.226562 269.5 Z M 46.226562 24.8125 " clip-rule="nonzero"/></clipPath><clipPath id="f6effcffb6"><path d="M 46.226562 269.5 L 187.5 24.8125 L 328.773438 269.5 Z M 46.226562 269.5 " clip-rule="nonzero"/></clipPath></defs><g clip-path="url(#7f668c413b)"><g clip-path="url(#fc0a8b7a08)"><path fill="#8c52ff" d="M 29.082031 6.722656 L 345.917969 6.722656 L 345.917969 281.101562 L 29.082031 281.101562 Z M 29.082031 6.722656 " fill-opacity="1" fill-rule="nonzero"/></g></g><g clip-path="url(#7a25428f2d)"><g clip-path="url(#f6effcffb6)"><path fill="#ffffff" d="M 46.226562 24.8125 L 328.773438 24.8125 L 328.773438 269.5 L 46.226562 269.5 Z M 46.226562 24.8125 " fill-opacity="1" fill-rule="nonzero"/></g></g><g fill="#000000" fill-opacity="1"><g transform="translate(121.974717, 156.24598)"><g><path d="M 1.359375 -6.4375 L 2.34375 -6.4375 C 2.582031 -4.84375 3.222656 -3.582031 4.265625 -2.65625 C 5.316406 -1.738281 6.609375 -1.28125 8.140625 -1.28125 C 8.765625 -1.28125 9.335938 -1.359375 9.859375 -1.515625 C 10.378906 -1.671875 10.820312 -1.882812 11.1875 -2.15625 C 11.5625 -2.4375 11.847656 -2.765625 12.046875 -3.140625 C 12.253906 -3.523438 12.359375 -3.953125 12.359375 -4.421875 C 12.359375 -4.828125 12.289062 -5.175781 12.15625 -5.46875 C 12.03125 -5.757812 11.789062 -6.046875 11.4375 -6.328125 C 11.09375 -6.609375 10.613281 -6.890625 10 -7.171875 C 9.382812 -7.460938 8.585938 -7.789062 7.609375 -8.15625 C 5.640625 -8.914062 4.179688 -9.796875 3.234375 -10.796875 C 2.285156 -11.796875 1.8125 -12.976562 1.8125 -14.34375 C 1.8125 -15.132812 1.960938 -15.859375 2.265625 -16.515625 C 2.578125 -17.179688 3.003906 -17.75 3.546875 -18.21875 C 4.097656 -18.6875 4.753906 -19.050781 5.515625 -19.3125 C 6.285156 -19.570312 7.132812 -19.703125 8.0625 -19.703125 C 8.914062 -19.703125 9.722656 -19.566406 10.484375 -19.296875 C 11.242188 -19.035156 11.992188 -18.632812 12.734375 -18.09375 L 13.1875 -19.359375 L 13.796875 -19.359375 L 14.078125 -13.890625 L 13.09375 -13.890625 C 12.6875 -15.273438 12.050781 -16.332031 11.1875 -17.0625 C 10.332031 -17.800781 9.34375 -18.171875 8.21875 -18.171875 C 7.164062 -18.171875 6.316406 -17.910156 5.671875 -17.390625 C 5.023438 -16.878906 4.703125 -16.21875 4.703125 -15.40625 C 4.703125 -15.050781 4.757812 -14.734375 4.875 -14.453125 C 4.988281 -14.179688 5.207031 -13.921875 5.53125 -13.671875 C 5.851562 -13.421875 6.289062 -13.160156 6.84375 -12.890625 C 7.40625 -12.628906 8.125 -12.34375 9 -12.03125 C 10.175781 -11.570312 11.179688 -11.109375 12.015625 -10.640625 C 12.847656 -10.179688 13.53125 -9.6875 14.0625 -9.15625 C 14.59375 -8.625 14.984375 -8.0625 15.234375 -7.46875 C 15.484375 -6.882812 15.609375 -6.238281 15.609375 -5.53125 C 15.609375 -4.675781 15.421875 -3.894531 15.046875 -3.1875 C 14.679688 -2.476562 14.164062 -1.867188 13.5 -1.359375 C 12.832031 -0.859375 12.039062 -0.460938 11.125 -0.171875 C 10.207031 0.109375 9.191406 0.25 8.078125 0.25 C 7.066406 0.25 6.15625 0.113281 5.34375 -0.15625 C 4.539062 -0.4375 3.710938 -0.890625 2.859375 -1.515625 L 2.34375 0 L 1.75 0 Z M 1.359375 -6.4375 "/></g></g></g><g fill="#000000" fill-opacity="1"><g transform="translate(140.671731, 156.24598)"><g><path d="M 8.6875 -7.203125 C 7.269531 -6.554688 6.203125 -5.957031 5.484375 -5.40625 C 4.773438 -4.863281 4.421875 -4.300781 4.421875 -3.71875 C 4.421875 -3.226562 4.554688 -2.835938 4.828125 -2.546875 C 5.097656 -2.265625 5.4375 -2.125 5.84375 -2.125 C 6.238281 -2.125 6.613281 -2.191406 6.96875 -2.328125 C 7.320312 -2.472656 7.625 -2.664062 7.875 -2.90625 C 8.132812 -3.144531 8.332031 -3.425781 8.46875 -3.75 C 8.613281 -4.082031 8.6875 -4.429688 8.6875 -4.796875 Z M 8.6875 -8.546875 L 8.6875 -9.59375 C 8.6875 -10.570312 8.515625 -11.285156 8.171875 -11.734375 C 7.828125 -12.179688 7.289062 -12.40625 6.5625 -12.40625 C 6.082031 -12.40625 5.710938 -12.273438 5.453125 -12.015625 C 5.203125 -11.753906 4.96875 -11.320312 4.75 -10.71875 C 4.59375 -10.289062 4.375 -9.957031 4.09375 -9.71875 C 3.820312 -9.488281 3.441406 -9.375 2.953125 -9.375 C 2.484375 -9.375 2.117188 -9.515625 1.859375 -9.796875 C 1.609375 -10.085938 1.484375 -10.492188 1.484375 -11.015625 C 1.484375 -11.828125 1.925781 -12.46875 2.8125 -12.9375 C 3.695312 -13.40625 5.035156 -13.640625 6.828125 -13.640625 C 8.710938 -13.640625 10.054688 -13.296875 10.859375 -12.609375 C 11.671875 -11.929688 12.078125 -10.796875 12.078125 -9.203125 L 12.078125 -3.65625 C 12.078125 -2.226562 12.363281 -1.515625 12.9375 -1.515625 C 13.257812 -1.515625 13.554688 -1.625 13.828125 -1.84375 L 14.203125 -1.109375 C 13.960938 -0.691406 13.59375 -0.359375 13.09375 -0.109375 C 12.601562 0.128906 12.046875 0.25 11.421875 0.25 C 10.648438 0.25 10.0625 0.015625 9.65625 -0.453125 C 9.25 -0.921875 9.046875 -1.585938 9.046875 -2.453125 L 8.921875 -2.453125 C 8.429688 -1.578125 7.796875 -0.910156 7.015625 -0.453125 C 6.242188 0.00390625 5.363281 0.234375 4.375 0.234375 C 3.3125 0.234375 2.457031 -0.0625 1.8125 -0.65625 C 1.175781 -1.257812 0.859375 -2.039062 0.859375 -3 C 0.859375 -3.75 1.1875 -4.445312 1.84375 -5.09375 C 2.5 -5.738281 3.59375 -6.375 5.125 -7 Z M 8.6875 -8.546875 "/></g></g></g><g fill="#000000" fill-opacity="1"><g transform="translate(157.120107, 156.24598)"><g><path d="M 6.5 -4.125 C 6.5 -3.425781 6.519531 -2.878906 6.5625 -2.484375 C 6.601562 -2.085938 6.691406 -1.785156 6.828125 -1.578125 C 6.972656 -1.367188 7.191406 -1.226562 7.484375 -1.15625 C 7.785156 -1.09375 8.1875 -1.046875 8.6875 -1.015625 L 8.6875 0 L 0.734375 0 L 0.734375 -1.015625 C 1.222656 -1.046875 1.613281 -1.09375 1.90625 -1.15625 C 2.195312 -1.226562 2.421875 -1.363281 2.578125 -1.5625 C 2.742188 -1.769531 2.851562 -2.054688 2.90625 -2.421875 C 2.957031 -2.796875 2.984375 -3.300781 2.984375 -3.9375 L 2.984375 -7.09375 C 2.984375 -8.09375 2.960938 -8.898438 2.921875 -9.515625 C 2.890625 -10.128906 2.847656 -10.546875 2.796875 -10.765625 C 2.753906 -10.984375 2.6875 -11.160156 2.59375 -11.296875 C 2.507812 -11.441406 2.382812 -11.550781 2.21875 -11.625 C 2.050781 -11.707031 1.84375 -11.757812 1.59375 -11.78125 C 1.34375 -11.8125 1.019531 -11.828125 0.625 -11.828125 L 0.625 -12.6875 L 5.515625 -13.640625 L 5.84375 -11.421875 L 5.9375 -11.421875 C 6.488281 -12.128906 7.144531 -12.675781 7.90625 -13.0625 C 8.664062 -13.445312 9.5 -13.640625 10.40625 -13.640625 C 11.488281 -13.640625 12.359375 -13.492188 13.015625 -13.203125 C 13.679688 -12.910156 14.28125 -12.414062 14.8125 -11.71875 C 15.09375 -11.332031 15.34375 -10.832031 15.5625 -10.21875 C 15.78125 -9.601562 15.890625 -8.757812 15.890625 -7.6875 L 15.890625 -4.125 C 15.890625 -3.425781 15.910156 -2.878906 15.953125 -2.484375 C 15.992188 -2.085938 16.085938 -1.785156 16.234375 -1.578125 C 16.378906 -1.367188 16.59375 -1.226562 16.875 -1.15625 C 17.164062 -1.09375 17.554688 -1.046875 18.046875 -1.015625 L 18.046875 0 L 10.125 0 L 10.125 -1.015625 C 10.632812 -1.023438 11.035156 -1.066406 11.328125 -1.140625 C 11.628906 -1.222656 11.851562 -1.363281 12 -1.5625 C 12.15625 -1.769531 12.253906 -2.0625 12.296875 -2.4375 C 12.347656 -2.8125 12.375 -3.3125 12.375 -3.9375 L 12.375 -7.375 C 12.375 -8.238281 12.320312 -8.960938 12.21875 -9.546875 C 12.125 -10.140625 11.960938 -10.613281 11.734375 -10.96875 C 11.503906 -11.332031 11.203125 -11.59375 10.828125 -11.75 C 10.460938 -11.914062 10.003906 -12 9.453125 -12 C 8.910156 -12 8.445312 -11.847656 8.0625 -11.546875 C 7.675781 -11.242188 7.335938 -10.820312 7.046875 -10.28125 C 6.898438 -9.976562 6.769531 -9.585938 6.65625 -9.109375 C 6.550781 -8.628906 6.5 -8.128906 6.5 -7.609375 Z M 6.5 -4.125 "/></g></g></g><g fill="#000000" fill-opacity="1"><g transform="translate(177.434127, 156.24598)"><g><path d="M 13.34375 -2.09375 C 12.695312 -1.382812 11.898438 -0.835938 10.953125 -0.453125 C 10.003906 -0.0664062 8.972656 0.125 7.859375 0.125 C 6.828125 0.125 5.890625 -0.0351562 5.046875 -0.359375 C 4.210938 -0.691406 3.488281 -1.148438 2.875 -1.734375 C 2.269531 -2.328125 1.800781 -3.039062 1.46875 -3.875 C 1.144531 -4.707031 0.984375 -5.628906 0.984375 -6.640625 C 0.984375 -7.691406 1.160156 -8.644531 1.515625 -9.5 C 1.867188 -10.351562 2.363281 -11.085938 3 -11.703125 C 3.644531 -12.328125 4.410156 -12.804688 5.296875 -13.140625 C 6.191406 -13.472656 7.179688 -13.640625 8.265625 -13.640625 C 9.023438 -13.640625 9.726562 -13.5625 10.375 -13.40625 C 11.019531 -13.257812 11.570312 -13.050781 12.03125 -12.78125 C 12.5 -12.507812 12.867188 -12.191406 13.140625 -11.828125 C 13.410156 -11.472656 13.546875 -11.082031 13.546875 -10.65625 C 13.546875 -10.164062 13.40625 -9.78125 13.125 -9.5 C 12.84375 -9.21875 12.46875 -9.078125 12 -9.078125 C 11.613281 -9.078125 11.269531 -9.175781 10.96875 -9.375 C 10.675781 -9.570312 10.390625 -9.898438 10.109375 -10.359375 C 9.859375 -10.765625 9.644531 -11.082031 9.46875 -11.3125 C 9.289062 -11.550781 9.125 -11.734375 8.96875 -11.859375 C 8.8125 -11.984375 8.65625 -12.066406 8.5 -12.109375 C 8.351562 -12.148438 8.171875 -12.171875 7.953125 -12.171875 C 6.984375 -12.171875 6.226562 -11.71875 5.6875 -10.8125 C 5.144531 -9.90625 4.875 -8.632812 4.875 -7 C 4.875 -5.25 5.195312 -3.898438 5.84375 -2.953125 C 6.5 -2.015625 7.429688 -1.546875 8.640625 -1.546875 C 9.328125 -1.546875 10.015625 -1.675781 10.703125 -1.9375 C 11.398438 -2.195312 12.0625 -2.570312 12.6875 -3.0625 Z M 13.34375 -2.09375 "/></g></g></g><g fill="#000000" fill-opacity="1"><g transform="translate(193.629839, 156.24598)"><g><path d="M 0.625 -12 L 0.625 -13.140625 C 1.632812 -13.421875 2.476562 -13.851562 3.15625 -14.4375 C 3.84375 -15.019531 4.359375 -15.691406 4.703125 -16.453125 L 5.984375 -16.453125 L 5.984375 -13.390625 L 8.890625 -13.390625 L 8.890625 -12 L 5.984375 -12 L 5.984375 -4.25 C 5.984375 -3.195312 6.097656 -2.453125 6.328125 -2.015625 C 6.554688 -1.578125 6.941406 -1.359375 7.484375 -1.359375 C 8.140625 -1.359375 8.632812 -1.664062 8.96875 -2.28125 L 9.5 -1.546875 C 9.03125 -0.347656 7.921875 0.25 6.171875 0.25 C 5.003906 0.25 4.09375 -0.015625 3.4375 -0.546875 C 2.789062 -1.085938 2.46875 -1.847656 2.46875 -2.828125 L 2.46875 -12 Z M 0.625 -12 "/></g></g></g><g fill="#000000" fill-opacity="1"><g transform="translate(205.227201, 156.24598)"><g><path d="M 11.75 -9.25 C 11.75 -9.925781 11.726562 -10.460938 11.6875 -10.859375 C 11.65625 -11.253906 11.5625 -11.554688 11.40625 -11.765625 C 11.257812 -11.972656 11.039062 -12.113281 10.75 -12.1875 C 10.457031 -12.257812 10.054688 -12.320312 9.546875 -12.375 L 9.546875 -13.390625 L 15.265625 -13.390625 L 15.265625 -5.734375 C 15.265625 -4.703125 15.273438 -3.894531 15.296875 -3.3125 C 15.328125 -2.738281 15.375 -2.304688 15.4375 -2.015625 C 15.488281 -1.796875 15.546875 -1.625 15.609375 -1.5 C 15.679688 -1.375 15.789062 -1.273438 15.9375 -1.203125 C 16.09375 -1.128906 16.300781 -1.078125 16.5625 -1.046875 C 16.820312 -1.023438 17.160156 -1.015625 17.578125 -1.015625 L 17.578125 -0.03125 L 12.5625 0.28125 L 12.28125 -1.96875 L 12.171875 -1.96875 C 11.734375 -1.257812 11.117188 -0.710938 10.328125 -0.328125 C 9.535156 0.0546875 8.65625 0.25 7.6875 0.25 C 5.882812 0.25 4.507812 -0.390625 3.5625 -1.671875 C 2.832031 -2.648438 2.46875 -4.039062 2.46875 -5.84375 L 2.46875 -9.25 C 2.46875 -9.9375 2.453125 -10.476562 2.421875 -10.875 C 2.390625 -11.269531 2.300781 -11.566406 2.15625 -11.765625 C 2.019531 -11.972656 1.804688 -12.113281 1.515625 -12.1875 C 1.234375 -12.257812 0.835938 -12.320312 0.328125 -12.375 L 0.328125 -13.390625 L 5.984375 -13.390625 L 5.984375 -6.234375 C 5.984375 -4.535156 6.191406 -3.300781 6.609375 -2.53125 C 7.035156 -1.769531 7.710938 -1.390625 8.640625 -1.390625 C 9.628906 -1.390625 10.394531 -1.84375 10.9375 -2.75 C 11.476562 -3.625 11.75 -4.914062 11.75 -6.625 Z M 11.75 -9.25 "/></g></g></g><g fill="#000000" fill-opacity="1"><g transform="translate(225.086446, 156.24598)"><g><path d="M 6.515625 -4.171875 C 6.515625 -3.460938 6.53125 -2.90625 6.5625 -2.5 C 6.601562 -2.09375 6.695312 -1.785156 6.84375 -1.578125 C 7 -1.367188 7.21875 -1.226562 7.5 -1.15625 C 7.789062 -1.09375 8.1875 -1.046875 8.6875 -1.015625 L 8.6875 0 L 0.703125 0 L 0.703125 -1.015625 C 1.210938 -1.046875 1.617188 -1.09375 1.921875 -1.15625 C 2.222656 -1.226562 2.445312 -1.363281 2.59375 -1.5625 C 2.75 -1.769531 2.851562 -2.0625 2.90625 -2.4375 C 2.957031 -2.8125 2.984375 -3.320312 2.984375 -3.96875 L 2.984375 -7.09375 C 2.984375 -8.0625 2.96875 -8.863281 2.9375 -9.5 C 2.914062 -10.132812 2.867188 -10.570312 2.796875 -10.8125 C 2.753906 -11.03125 2.691406 -11.203125 2.609375 -11.328125 C 2.535156 -11.453125 2.414062 -11.550781 2.25 -11.625 C 2.09375 -11.707031 1.890625 -11.757812 1.640625 -11.78125 C 1.390625 -11.8125 1.0625 -11.828125 0.65625 -11.828125 L 0.65625 -12.6875 L 5.53125 -13.640625 L 5.84375 -11.453125 L 5.984375 -11.453125 C 6.691406 -12.242188 7.40625 -12.804688 8.125 -13.140625 C 8.84375 -13.472656 9.671875 -13.640625 10.609375 -13.640625 C 11.722656 -13.640625 12.640625 -13.445312 13.359375 -13.0625 C 14.085938 -12.675781 14.640625 -12.117188 15.015625 -11.390625 L 15.109375 -11.390625 C 15.710938 -12.097656 16.4375 -12.648438 17.28125 -13.046875 C 18.125 -13.441406 19.023438 -13.640625 19.984375 -13.640625 C 20.992188 -13.640625 21.875 -13.515625 22.625 -13.265625 C 23.375 -13.015625 23.957031 -12.648438 24.375 -12.171875 C 24.71875 -11.785156 24.96875 -11.28125 25.125 -10.65625 C 25.28125 -10.039062 25.359375 -9.175781 25.359375 -8.0625 L 25.359375 -4.171875 C 25.359375 -3.484375 25.378906 -2.9375 25.421875 -2.53125 C 25.472656 -2.125 25.570312 -1.8125 25.71875 -1.59375 C 25.875 -1.375 26.09375 -1.226562 26.375 -1.15625 C 26.664062 -1.09375 27.0625 -1.046875 27.5625 -1.015625 L 27.5625 0 L 19.578125 0 L 19.578125 -1.015625 C 20.085938 -1.023438 20.488281 -1.066406 20.78125 -1.140625 C 21.070312 -1.222656 21.296875 -1.367188 21.453125 -1.578125 C 21.617188 -1.785156 21.722656 -2.070312 21.765625 -2.4375 C 21.804688 -2.8125 21.828125 -3.320312 21.828125 -3.96875 L 21.828125 -7.28125 C 21.828125 -8.15625 21.773438 -8.894531 21.671875 -9.5 C 21.578125 -10.101562 21.421875 -10.585938 21.203125 -10.953125 C 20.984375 -11.328125 20.691406 -11.59375 20.328125 -11.75 C 19.960938 -11.914062 19.519531 -12 19 -12 C 18.40625 -12 17.921875 -11.851562 17.546875 -11.5625 C 17.171875 -11.28125 16.851562 -10.910156 16.59375 -10.453125 C 16.15625 -9.660156 15.9375 -8.675781 15.9375 -7.5 L 15.9375 -4.171875 C 15.9375 -3.484375 15.953125 -2.9375 15.984375 -2.53125 C 16.023438 -2.125 16.117188 -1.8125 16.265625 -1.59375 C 16.421875 -1.375 16.644531 -1.226562 16.9375 -1.15625 C 17.226562 -1.09375 17.640625 -1.046875 18.171875 -1.015625 L 18.171875 0 L 10.15625 0 L 10.15625 -1.015625 C 10.664062 -1.046875 11.066406 -1.09375 11.359375 -1.15625 C 11.648438 -1.226562 11.875 -1.363281 12.03125 -1.5625 C 12.195312 -1.769531 12.300781 -2.0625 12.34375 -2.4375 C 12.382812 -2.8125 12.40625 -3.320312 12.40625 -3.96875 L 12.40625 -7.28125 C 12.40625 -8.15625 12.351562 -8.894531 12.25 -9.5 C 12.15625 -10.101562 11.992188 -10.585938 11.765625 -10.953125 C 11.535156 -11.328125 11.234375 -11.59375 10.859375 -11.75 C 10.492188 -11.914062 10.03125 -12 9.46875 -12 C 8.914062 -12 8.457031 -11.863281 8.09375 -11.59375 C 7.726562 -11.320312 7.429688 -10.960938 7.203125 -10.515625 C 6.984375 -10.109375 6.8125 -9.644531 6.6875 -9.125 C 6.570312 -8.601562 6.515625 -8.0625 6.515625 -7.5 Z M 6.515625 -4.171875 "/></g></g></g><g fill="#000000" fill-opacity="1"><g transform="translate(110.502061, 191.495978)"><g><path d="M 22.40625 -4.90625 L 25.828125 -14.65625 C 26.222656 -15.78125 26.421875 -16.625 26.421875 -17.1875 C 26.421875 -17.707031 26.238281 -18.046875 25.875 -18.203125 C 25.519531 -18.359375 24.960938 -18.4375 24.203125 -18.4375 L 24.203125 -19.453125 L 31.375 -19.453125 L 31.375 -18.4375 C 30.738281 -18.4375 30.160156 -18.28125 29.640625 -17.96875 C 29.128906 -17.664062 28.738281 -17.140625 28.46875 -16.390625 L 22.390625 0.25 L 20.140625 0.25 L 15.734375 -13.09375 L 10.734375 0.25 L 8.640625 0.25 L 3.28125 -14.5 C 2.957031 -15.363281 2.660156 -16.054688 2.390625 -16.578125 C 2.128906 -17.097656 1.847656 -17.492188 1.546875 -17.765625 C 1.242188 -18.035156 0.914062 -18.210938 0.5625 -18.296875 C 0.207031 -18.378906 -0.210938 -18.421875 -0.703125 -18.421875 L -0.703125 -19.453125 L 8.84375 -19.453125 L 8.84375 -18.421875 C 7.976562 -18.421875 7.382812 -18.335938 7.0625 -18.171875 C 6.75 -18.015625 6.59375 -17.75 6.59375 -17.375 C 6.59375 -17.25 6.597656 -17.117188 6.609375 -16.984375 C 6.628906 -16.859375 6.664062 -16.71875 6.71875 -16.5625 C 6.769531 -16.40625 6.832031 -16.207031 6.90625 -15.96875 C 6.988281 -15.726562 7.09375 -15.429688 7.21875 -15.078125 L 10.765625 -4.90625 L 14.859375 -16.0625 C 14.691406 -16.519531 14.519531 -16.890625 14.34375 -17.171875 C 14.175781 -17.460938 13.976562 -17.691406 13.75 -17.859375 C 13.53125 -18.023438 13.273438 -18.144531 12.984375 -18.21875 C 12.703125 -18.300781 12.359375 -18.367188 11.953125 -18.421875 L 11.953125 -19.453125 L 20.875 -19.453125 L 20.875 -18.421875 C 20.164062 -18.421875 19.640625 -18.332031 19.296875 -18.15625 C 18.960938 -17.976562 18.796875 -17.632812 18.796875 -17.125 C 18.796875 -16.875 18.832031 -16.578125 18.90625 -16.234375 C 18.988281 -15.898438 19.097656 -15.515625 19.234375 -15.078125 Z M 22.40625 -4.90625 "/></g></g></g><g fill="#000000" fill-opacity="1"><g transform="translate(143.448924, 191.495978)"><g><path d="M 13.640625 -2.34375 C 12.109375 -0.613281 10.195312 0.25 7.90625 0.25 C 6.863281 0.25 5.914062 0.0859375 5.0625 -0.234375 C 4.21875 -0.566406 3.488281 -1.03125 2.875 -1.625 C 2.269531 -2.226562 1.796875 -2.941406 1.453125 -3.765625 C 1.117188 -4.585938 0.953125 -5.503906 0.953125 -6.515625 C 0.953125 -7.554688 1.128906 -8.507812 1.484375 -9.375 C 1.835938 -10.25 2.335938 -11 2.984375 -11.625 C 3.640625 -12.257812 4.410156 -12.753906 5.296875 -13.109375 C 6.179688 -13.460938 7.15625 -13.640625 8.21875 -13.640625 C 10 -13.640625 11.382812 -13.160156 12.375 -12.203125 C 13.375 -11.242188 13.875 -9.894531 13.875 -8.15625 C 13.875 -7.882812 13.832031 -7.71875 13.75 -7.65625 C 13.664062 -7.601562 13.425781 -7.578125 13.03125 -7.578125 L 4.90625 -7.578125 C 4.832031 -7.429688 4.796875 -7.15625 4.796875 -6.75 C 4.796875 -5.09375 5.15625 -3.785156 5.875 -2.828125 C 6.59375 -1.867188 7.566406 -1.390625 8.796875 -1.390625 C 9.503906 -1.390625 10.207031 -1.546875 10.90625 -1.859375 C 11.601562 -2.179688 12.28125 -2.640625 12.9375 -3.234375 Z M 8.734375 -9 C 9.410156 -9 9.84375 -9.035156 10.03125 -9.109375 C 10.226562 -9.179688 10.328125 -9.363281 10.328125 -9.65625 C 10.328125 -10.394531 10.117188 -11 9.703125 -11.46875 C 9.285156 -11.9375 8.753906 -12.171875 8.109375 -12.171875 C 7.390625 -12.171875 6.742188 -11.875 6.171875 -11.28125 C 5.609375 -10.6875 5.242188 -9.925781 5.078125 -9 Z M 8.734375 -9 "/></g></g></g><g fill="#000000" fill-opacity="1"><g transform="translate(160.175218, 191.495978)"><g><path d="M 6.234375 -4.140625 C 6.234375 -3.472656 6.257812 -2.9375 6.3125 -2.53125 C 6.363281 -2.125 6.460938 -1.8125 6.609375 -1.59375 C 6.765625 -1.375 6.984375 -1.222656 7.265625 -1.140625 C 7.554688 -1.066406 7.945312 -1.023438 8.4375 -1.015625 L 8.4375 0 L 0.484375 0 L 0.484375 -1.015625 C 0.953125 -1.023438 1.332031 -1.078125 1.625 -1.171875 C 1.925781 -1.265625 2.15625 -1.414062 2.3125 -1.625 C 2.46875 -1.84375 2.578125 -2.140625 2.640625 -2.515625 C 2.703125 -2.890625 2.734375 -3.375 2.734375 -3.96875 L 2.734375 -14.40625 C 2.734375 -15.375 2.710938 -16.175781 2.671875 -16.8125 C 2.640625 -17.445312 2.597656 -17.878906 2.546875 -18.109375 C 2.460938 -18.535156 2.273438 -18.816406 1.984375 -18.953125 C 1.691406 -19.085938 1.15625 -19.15625 0.375 -19.15625 L 0.375 -20.015625 L 6.234375 -20.96875 Z M 6.234375 -4.140625 "/></g></g></g><g fill="#000000" fill-opacity="1"><g transform="translate(171.090398, 191.495978)"><g><path d="M 6.234375 -4.140625 C 6.234375 -3.472656 6.257812 -2.9375 6.3125 -2.53125 C 6.363281 -2.125 6.460938 -1.8125 6.609375 -1.59375 C 6.765625 -1.375 6.984375 -1.222656 7.265625 -1.140625 C 7.554688 -1.066406 7.945312 -1.023438 8.4375 -1.015625 L 8.4375 0 L 0.484375 0 L 0.484375 -1.015625 C 0.953125 -1.023438 1.332031 -1.078125 1.625 -1.171875 C 1.925781 -1.265625 2.15625 -1.414062 2.3125 -1.625 C 2.46875 -1.84375 2.578125 -2.140625 2.640625 -2.515625 C 2.703125 -2.890625 2.734375 -3.375 2.734375 -3.96875 L 2.734375 -14.40625 C 2.734375 -15.375 2.710938 -16.175781 2.671875 -16.8125 C 2.640625 -17.445312 2.597656 -17.878906 2.546875 -18.109375 C 2.460938 -18.535156 2.273438 -18.816406 1.984375 -18.953125 C 1.691406 -19.085938 1.15625 -19.15625 0.375 -19.15625 L 0.375 -20.015625 L 6.234375 -20.96875 Z M 6.234375 -4.140625 "/></g></g></g><g fill="#000000" fill-opacity="1"><g transform="translate(182.005577, 191.495978)"><g><path d="M 5.6875 -5.53125 C 5.6875 -4.90625 5.773438 -4.328125 5.953125 -3.796875 C 6.128906 -3.265625 6.367188 -2.804688 6.671875 -2.421875 C 6.972656 -2.035156 7.332031 -1.734375 7.75 -1.515625 C 8.175781 -1.296875 8.640625 -1.1875 9.140625 -1.1875 C 10.148438 -1.1875 10.914062 -1.648438 11.4375 -2.578125 C 11.96875 -3.503906 12.234375 -4.867188 12.234375 -6.671875 C 12.234375 -8.421875 11.972656 -9.753906 11.453125 -10.671875 C 10.941406 -11.585938 10.171875 -12.046875 9.140625 -12.046875 C 8.535156 -12.046875 7.976562 -11.878906 7.46875 -11.546875 C 6.957031 -11.222656 6.554688 -10.769531 6.265625 -10.1875 C 5.878906 -9.375 5.6875 -8.351562 5.6875 -7.125 Z M 5.640625 -11.640625 L 5.734375 -11.640625 C 6.171875 -12.285156 6.734375 -12.78125 7.421875 -13.125 C 8.117188 -13.46875 8.90625 -13.640625 9.78125 -13.640625 C 10.664062 -13.640625 11.492188 -13.457031 12.265625 -13.09375 C 13.035156 -12.738281 13.703125 -12.25 14.265625 -11.625 C 14.828125 -11 15.265625 -10.265625 15.578125 -9.421875 C 15.898438 -8.578125 16.0625 -7.675781 16.0625 -6.71875 C 16.0625 -5.707031 15.890625 -4.773438 15.546875 -3.921875 C 15.203125 -3.078125 14.726562 -2.34375 14.125 -1.71875 C 13.53125 -1.09375 12.832031 -0.601562 12.03125 -0.25 C 11.238281 0.101562 10.394531 0.28125 9.5 0.28125 C 8.570312 0.28125 7.695312 0.0976562 6.875 -0.265625 C 6.0625 -0.628906 5.410156 -1.101562 4.921875 -1.6875 L 3 0 L 2.140625 0 L 2.140625 -15.03125 C 2.140625 -16.613281 2.03125 -17.703125 1.8125 -18.296875 C 1.769531 -18.410156 1.710938 -18.507812 1.640625 -18.59375 C 1.578125 -18.675781 1.476562 -18.75 1.34375 -18.8125 C 1.21875 -18.875 1.046875 -18.925781 0.828125 -18.96875 C 0.609375 -19.007812 0.320312 -19.050781 -0.03125 -19.09375 L -0.03125 -19.953125 L 5.640625 -20.96875 Z M 5.640625 -11.640625 "/></g></g></g><g fill="#000000" fill-opacity="1"><g transform="translate(200.980521, 191.495978)"><g><path d="M 13.640625 -2.34375 C 12.109375 -0.613281 10.195312 0.25 7.90625 0.25 C 6.863281 0.25 5.914062 0.0859375 5.0625 -0.234375 C 4.21875 -0.566406 3.488281 -1.03125 2.875 -1.625 C 2.269531 -2.226562 1.796875 -2.941406 1.453125 -3.765625 C 1.117188 -4.585938 0.953125 -5.503906 0.953125 -6.515625 C 0.953125 -7.554688 1.128906 -8.507812 1.484375 -9.375 C 1.835938 -10.25 2.335938 -11 2.984375 -11.625 C 3.640625 -12.257812 4.410156 -12.753906 5.296875 -13.109375 C 6.179688 -13.460938 7.15625 -13.640625 8.21875 -13.640625 C 10 -13.640625 11.382812 -13.160156 12.375 -12.203125 C 13.375 -11.242188 13.875 -9.894531 13.875 -8.15625 C 13.875 -7.882812 13.832031 -7.71875 13.75 -7.65625 C 13.664062 -7.601562 13.425781 -7.578125 13.03125 -7.578125 L 4.90625 -7.578125 C 4.832031 -7.429688 4.796875 -7.15625 4.796875 -6.75 C 4.796875 -5.09375 5.15625 -3.785156 5.875 -2.828125 C 6.59375 -1.867188 7.566406 -1.390625 8.796875 -1.390625 C 9.503906 -1.390625 10.207031 -1.546875 10.90625 -1.859375 C 11.601562 -2.179688 12.28125 -2.640625 12.9375 -3.234375 Z M 8.734375 -9 C 9.410156 -9 9.84375 -9.035156 10.03125 -9.109375 C 10.226562 -9.179688 10.328125 -9.363281 10.328125 -9.65625 C 10.328125 -10.394531 10.117188 -11 9.703125 -11.46875 C 9.285156 -11.9375 8.753906 -12.171875 8.109375 -12.171875 C 7.390625 -12.171875 6.742188 -11.875 6.171875 -11.28125 C 5.609375 -10.6875 5.242188 -9.925781 5.078125 -9 Z M 8.734375 -9 "/></g></g></g><g fill="#000000" fill-opacity="1"><g transform="translate(217.706815, 191.495978)"><g><path d="M 6.5 -4.140625 C 6.5 -3.472656 6.519531 -2.9375 6.5625 -2.53125 C 6.613281 -2.125 6.710938 -1.8125 6.859375 -1.59375 C 7.015625 -1.375 7.234375 -1.222656 7.515625 -1.140625 C 7.804688 -1.066406 8.195312 -1.023438 8.6875 -1.015625 L 8.6875 0 L 0.734375 0 L 0.734375 -1.015625 C 1.203125 -1.023438 1.582031 -1.078125 1.875 -1.171875 C 2.175781 -1.265625 2.40625 -1.414062 2.5625 -1.625 C 2.71875 -1.84375 2.828125 -2.140625 2.890625 -2.515625 C 2.953125 -2.890625 2.984375 -3.375 2.984375 -3.96875 L 2.984375 -7.078125 C 2.984375 -8.054688 2.960938 -8.859375 2.921875 -9.484375 C 2.890625 -10.117188 2.847656 -10.550781 2.796875 -10.78125 C 2.710938 -11.207031 2.523438 -11.488281 2.234375 -11.625 C 1.941406 -11.757812 1.40625 -11.828125 0.625 -11.828125 L 0.625 -12.6875 L 6.5 -13.640625 Z M 2.78125 -19 C 2.78125 -19.550781 2.96875 -20.015625 3.34375 -20.390625 C 3.726562 -20.773438 4.1875 -20.96875 4.71875 -20.96875 C 5.28125 -20.96875 5.75 -20.773438 6.125 -20.390625 C 6.507812 -20.015625 6.703125 -19.550781 6.703125 -19 C 6.703125 -18.457031 6.507812 -17.992188 6.125 -17.609375 C 5.75 -17.234375 5.28125 -17.046875 4.71875 -17.046875 C 4.1875 -17.046875 3.726562 -17.234375 3.34375 -17.609375 C 2.96875 -17.992188 2.78125 -18.457031 2.78125 -19 Z M 2.78125 -19 "/></g></g></g><g fill="#000000" fill-opacity="1"><g transform="translate(228.773595, 191.495978)"><g><path d="M 6.5 -4.125 C 6.5 -3.425781 6.519531 -2.878906 6.5625 -2.484375 C 6.601562 -2.085938 6.691406 -1.785156 6.828125 -1.578125 C 6.972656 -1.367188 7.191406 -1.226562 7.484375 -1.15625 C 7.785156 -1.09375 8.1875 -1.046875 8.6875 -1.015625 L 8.6875 0 L 0.734375 0 L 0.734375 -1.015625 C 1.222656 -1.046875 1.613281 -1.09375 1.90625 -1.15625 C 2.195312 -1.226562 2.421875 -1.363281 2.578125 -1.5625 C 2.742188 -1.769531 2.851562 -2.054688 2.90625 -2.421875 C 2.957031 -2.796875 2.984375 -3.300781 2.984375 -3.9375 L 2.984375 -7.09375 C 2.984375 -8.09375 2.960938 -8.898438 2.921875 -9.515625 C 2.890625 -10.128906 2.847656 -10.546875 2.796875 -10.765625 C 2.753906 -10.984375 2.6875 -11.160156 2.59375 -11.296875 C 2.507812 -11.441406 2.382812 -11.550781 2.21875 -11.625 C 2.050781 -11.707031 1.84375 -11.757812 1.59375 -11.78125 C 1.34375 -11.8125 1.019531 -11.828125 0.625 -11.828125 L 0.625 -12.6875 L 5.515625 -13.640625 L 5.84375 -11.421875 L 5.9375 -11.421875 C 6.488281 -12.128906 7.144531 -12.675781 7.90625 -13.0625 C 8.664062 -13.445312 9.5 -13.640625 10.40625 -13.640625 C 11.488281 -13.640625 12.359375 -13.492188 13.015625 -13.203125 C 13.679688 -12.910156 14.28125 -12.414062 14.8125 -11.71875 C 15.09375 -11.332031 15.34375 -10.832031 15.5625 -10.21875 C 15.78125 -9.601562 15.890625 -8.757812 15.890625 -7.6875 L 15.890625 -4.125 C 15.890625 -3.425781 15.910156 -2.878906 15.953125 -2.484375 C 15.992188 -2.085938 16.085938 -1.785156 16.234375 -1.578125 C 16.378906 -1.367188 16.59375 -1.226562 16.875 -1.15625 C 17.164062 -1.09375 17.554688 -1.046875 18.046875 -1.015625 L 18.046875 0 L 10.125 0 L 10.125 -1.015625 C 10.632812 -1.023438 11.035156 -1.066406 11.328125 -1.140625 C 11.628906 -1.222656 11.851562 -1.363281 12 -1.5625 C 12.15625 -1.769531 12.253906 -2.0625 12.296875 -2.4375 C 12.347656 -2.8125 12.375 -3.3125 12.375 -3.9375 L 12.375 -7.375 C 12.375 -8.238281 12.320312 -8.960938 12.21875 -9.546875 C 12.125 -10.140625 11.960938 -10.613281 11.734375 -10.96875 C 11.503906 -11.332031 11.203125 -11.59375 10.828125 -11.75 C 10.460938 -11.914062 10.003906 -12 9.453125 -12 C 8.910156 -12 8.445312 -11.847656 8.0625 -11.546875 C 7.675781 -11.242188 7.335938 -10.820312 7.046875 -10.28125 C 6.898438 -9.976562 6.769531 -9.585938 6.65625 -9.109375 C 6.550781 -8.628906 6.5 -8.128906 6.5 -7.609375 Z M 6.5 -4.125 "/></g></g></g><g fill="#000000" fill-opacity="1"><g transform="translate(249.087612, 191.495978)"><g><path d="M 5.765625 -2.734375 C 6.210938 -2.691406 6.609375 -2.65625 6.953125 -2.625 C 7.304688 -2.59375 7.632812 -2.554688 7.9375 -2.515625 C 8.25 -2.472656 8.5625 -2.429688 8.875 -2.390625 C 9.1875 -2.347656 9.519531 -2.300781 9.875 -2.25 C 11.1875 -2.0625 12.21875 -1.566406 12.96875 -0.765625 C 13.71875 0.0234375 14.09375 1.015625 14.09375 2.203125 C 14.09375 3.628906 13.503906 4.710938 12.328125 5.453125 C 11.148438 6.191406 9.414062 6.5625 7.125 6.5625 C 5.019531 6.5625 3.398438 6.253906 2.265625 5.640625 C 1.128906 5.023438 0.5625 4.15625 0.5625 3.03125 C 0.5625 2.15625 0.785156 1.492188 1.234375 1.046875 C 1.691406 0.597656 2.265625 0.375 2.953125 0.375 C 3.390625 0.375 3.8125 0.460938 4.21875 0.640625 C 4.632812 0.816406 4.988281 1.078125 5.28125 1.421875 C 4.84375 1.503906 4.484375 1.695312 4.203125 2 C 3.929688 2.3125 3.796875 2.679688 3.796875 3.109375 C 3.796875 3.785156 4.09375 4.300781 4.6875 4.65625 C 5.28125 5.019531 6.160156 5.203125 7.328125 5.203125 C 9.847656 5.203125 11.109375 4.398438 11.109375 2.796875 C 11.109375 2.234375 10.921875 1.742188 10.546875 1.328125 C 10.171875 0.910156 9.628906 0.660156 8.921875 0.578125 L 4.5 -0.03125 C 2.625 -0.28125 1.6875 -1.113281 1.6875 -2.53125 C 1.6875 -3.21875 1.910156 -3.78125 2.359375 -4.21875 C 2.804688 -4.65625 3.441406 -4.957031 4.265625 -5.125 L 4.265625 -5.234375 C 3.878906 -5.378906 3.53125 -5.585938 3.21875 -5.859375 C 2.90625 -6.128906 2.628906 -6.441406 2.390625 -6.796875 C 2.160156 -7.148438 1.984375 -7.53125 1.859375 -7.9375 C 1.734375 -8.351562 1.671875 -8.78125 1.671875 -9.21875 C 1.671875 -9.84375 1.800781 -10.425781 2.0625 -10.96875 C 2.320312 -11.519531 2.679688 -11.988281 3.140625 -12.375 C 3.609375 -12.769531 4.15625 -13.078125 4.78125 -13.296875 C 5.414062 -13.523438 6.101562 -13.640625 6.84375 -13.640625 C 7.570312 -13.640625 8.28125 -13.53125 8.96875 -13.3125 C 9.65625 -13.09375 10.242188 -12.789062 10.734375 -12.40625 C 11.117188 -12.644531 11.453125 -12.84375 11.734375 -13 C 12.023438 -13.15625 12.289062 -13.28125 12.53125 -13.375 C 12.78125 -13.46875 13.003906 -13.535156 13.203125 -13.578125 C 13.410156 -13.617188 13.617188 -13.640625 13.828125 -13.640625 C 14.460938 -13.640625 14.976562 -13.492188 15.375 -13.203125 C 15.769531 -12.921875 15.96875 -12.546875 15.96875 -12.078125 C 15.96875 -11.722656 15.859375 -11.429688 15.640625 -11.203125 C 15.421875 -10.972656 15.132812 -10.859375 14.78125 -10.859375 C 14.53125 -10.859375 14.328125 -10.910156 14.171875 -11.015625 C 14.023438 -11.128906 13.878906 -11.257812 13.734375 -11.40625 C 13.585938 -11.550781 13.4375 -11.675781 13.28125 -11.78125 C 13.132812 -11.894531 12.9375 -11.953125 12.6875 -11.953125 C 12.332031 -11.953125 11.992188 -11.722656 11.671875 -11.265625 C 11.835938 -10.984375 11.953125 -10.675781 12.015625 -10.34375 C 12.085938 -10.019531 12.125 -9.640625 12.125 -9.203125 C 12.125 -8.554688 12.019531 -7.960938 11.8125 -7.421875 C 11.613281 -6.890625 11.300781 -6.414062 10.875 -6 C 10.445312 -5.582031 9.894531 -5.226562 9.21875 -4.9375 C 8.550781 -4.65625 7.734375 -4.46875 6.765625 -4.375 C 5.960938 -4.289062 5.40625 -4.179688 5.09375 -4.046875 C 4.78125 -3.910156 4.625 -3.707031 4.625 -3.4375 C 4.625 -3.03125 5.003906 -2.796875 5.765625 -2.734375 Z M 6.96875 -5.8125 C 7.507812 -5.8125 7.929688 -6.097656 8.234375 -6.671875 C 8.535156 -7.242188 8.6875 -8.046875 8.6875 -9.078125 C 8.6875 -10.117188 8.535156 -10.921875 8.234375 -11.484375 C 7.929688 -12.046875 7.503906 -12.328125 6.953125 -12.328125 C 6.378906 -12.328125 5.921875 -12.039062 5.578125 -11.46875 C 5.242188 -10.894531 5.078125 -10.113281 5.078125 -9.125 C 5.078125 -8.113281 5.25 -7.304688 5.59375 -6.703125 C 5.9375 -6.109375 6.394531 -5.8125 6.96875 -5.8125 Z M 6.96875 -5.8125 "/></g></g></g><g fill="#000000" fill-opacity="1"><g transform="translate(121.939979, 216.538248)"><g><path d="M 1.453125 2.15625 L 9.445312 -3.234375 L 8.777344 -4.230469 L 0.78125 1.160156 Z M 1.453125 2.15625 "/></g></g></g><g fill="#000000" fill-opacity="1"><g transform="translate(124.521209, 220.472931)"><g><path d="M 8.800781 2.203125 C 9.738281 1.292969 9.835938 0.0429688 8.8125 -1.214844 C 8.339844 -1.796875 7.894531 -2.140625 7.121094 -2.320312 L 6.167969 -2.140625 L 7.152344 -2.941406 L 6.394531 -3.875 L 0.652344 0.800781 L 1.410156 1.734375 L 3.9375 -0.320312 C 5.898438 -1.917969 7.1875 -1.707031 7.917969 -0.808594 C 8.640625 0.078125 8.445312 0.855469 7.816406 1.457031 C 7.542969 1.714844 7.304688 1.910156 7.011719 2.148438 L 3.847656 4.722656 L 4.605469 5.65625 L 7.835938 3.027344 C 8.300781 2.648438 8.527344 2.460938 8.800781 2.203125 Z M 8.800781 2.203125 "/></g></g></g><g fill="#000000" fill-opacity="1"><g transform="translate(130.537082, 227.756754)"><g><path d="M 12.523438 -2.230469 L 11.652344 -3.0625 L 8.96875 -0.253906 L 9.117188 -1.117188 C 9.058594 -1.601562 8.617188 -2.273438 8.171875 -2.699219 C 6.789062 -4.023438 4.679688 -4.28125 2.785156 -2.304688 C 1.289062 -0.738281 1.035156 1.261719 2.601562 2.757812 C 3.144531 3.28125 3.875 3.652344 4.417969 3.6875 L 5.375 3.5 L 4.550781 4.355469 L 5.421875 5.1875 Z M 3.367188 2.21875 C 2.300781 1.195312 2.671875 -0.285156 3.832031 -1.496094 C 5.175781 -2.898438 6.597656 -2.929688 7.535156 -2.03125 C 8.300781 -1.296875 8.667969 0.0585938 7.34375 1.441406 L 7.0625 1.734375 C 5.597656 3.265625 4.257812 3.070312 3.367188 2.21875 Z M 3.367188 2.21875 "/></g></g></g><g fill="#000000" fill-opacity="1"><g transform="translate(137.581678, 234.276585)"><g><path d="M 7.414062 -6.667969 C 7.074219 -6.9375 6.605469 -6.886719 6.332031 -6.546875 C 6.0625 -6.207031 6.117188 -5.738281 6.453125 -5.46875 C 6.792969 -5.195312 7.265625 -5.25 7.535156 -5.589844 C 7.804688 -5.925781 7.753906 -6.398438 7.414062 -6.667969 Z M 1.746094 1.394531 L 6.367188 -4.394531 L 5.425781 -5.144531 L 0.808594 0.644531 Z M 1.746094 1.394531 "/></g></g></g><g fill="#000000" fill-opacity="1"><g transform="translate(140.917258, 236.995866)"><g><path d="M 4.382812 2.945312 L 5.382812 3.617188 C 5.75 2.871094 6.003906 2.4375 6.316406 1.972656 L 7.867188 -0.335938 C 8.046875 -0.601562 8.238281 -0.910156 8.378906 -1.171875 C 8.953125 -2.25 8.75 -3.277344 7.289062 -4.257812 C 5.933594 -5.171875 4.511719 -5.03125 3.535156 -3.785156 L 4.582031 -3.082031 C 5.21875 -3.882812 5.941406 -4.054688 6.773438 -3.492188 C 7.597656 -2.941406 7.675781 -2.351562 7.339844 -1.753906 C 7.207031 -1.503906 7.042969 -1.261719 6.863281 -0.996094 L 6.753906 -0.832031 L 6.359375 -1.097656 C 3.945312 -2.71875 2.421875 -2.699219 1.484375 -1.308594 C 0.722656 -0.171875 1.179688 1.027344 2.292969 1.777344 C 2.882812 2.171875 3.480469 2.4375 4.089844 2.429688 L 4.871094 1.996094 Z M 3.140625 1.234375 C 2.386719 0.730469 2.132812 0.0859375 2.628906 -0.65625 C 3.339844 -1.710938 4.648438 -1.355469 6.253906 -0.0898438 L 5.835938 0.535156 C 5.085938 1.648438 4.070312 1.859375 3.140625 1.234375 Z M 3.140625 1.234375 "/></g></g></g><g fill="#000000" fill-opacity="1"><g transform="translate(148.033591, 241.728813)"><g><path d="M 8.949219 -1.503906 C 9.445312 -2.710938 9.035156 -3.894531 7.59375 -4.636719 C 6.921875 -4.984375 6.378906 -5.121094 5.597656 -4.976562 L 4.796875 -4.429688 L 5.378906 -5.558594 L 4.3125 -6.109375 L 0.917969 0.472656 L 1.988281 1.023438 L 3.480469 -1.871094 C 4.636719 -4.117188 5.902344 -4.441406 6.933594 -3.910156 C 7.953125 -3.382812 8.082031 -2.59375 7.746094 -1.792969 C 7.597656 -1.445312 7.457031 -1.171875 7.285156 -0.835938 L 5.414062 2.789062 L 6.484375 3.339844 L 8.390625 -0.359375 C 8.664062 -0.894531 8.800781 -1.15625 8.949219 -1.503906 Z M 8.949219 -1.503906 "/></g></g></g><g fill="#000000" fill-opacity="1"><g transform="translate(156.345785, 245.836477)"><g/></g></g><g fill="#000000" fill-opacity="1"><g transform="translate(160.068656, 247.502183)"><g><path d="M 11.496094 -6.621094 L 10.34375 -6.964844 L 9.074219 -2.734375 L 3.988281 -4.257812 L 5.257812 -8.488281 L 4.105469 -8.832031 L 1.339844 0.402344 L 2.488281 0.746094 L 3.699219 -3.296875 L 8.785156 -1.769531 L 7.574219 2.269531 L 8.726562 2.617188 Z M 11.496094 -6.621094 "/></g></g></g><g fill="#000000" fill-opacity="1"><g transform="translate(171.022336, 250.618953)"><g><path d="M 7.644531 -2.726562 C 7.992188 -4.863281 7.117188 -6.546875 5.105469 -6.875 C 3.105469 -7.195312 1.386719 -5.933594 1 -3.558594 C 0.582031 -0.980469 1.804688 0.488281 3.707031 0.796875 C 5.210938 1.042969 6.730469 0.480469 7.304688 -1.238281 L 6.066406 -1.4375 C 5.730469 -0.417969 4.859375 0.0507812 3.910156 -0.101562 C 2.832031 -0.277344 2.027344 -1.074219 2.230469 -3.023438 L 7.527344 -2.164062 C 7.597656 -2.421875 7.628906 -2.613281 7.644531 -2.726562 Z M 4.929688 -5.96875 C 6.128906 -5.773438 6.636719 -4.800781 6.5 -3.265625 L 2.390625 -3.929688 C 2.78125 -5.464844 3.769531 -6.15625 4.929688 -5.96875 Z M 4.929688 -5.96875 "/></g></g></g><g fill="#000000" fill-opacity="1"><g transform="translate(179.697416, 251.954763)"><g><path d="M 5.273438 0.257812 L 6.476562 0.316406 C 6.402344 -0.511719 6.402344 -1.015625 6.429688 -1.574219 L 6.5625 -4.351562 C 6.578125 -4.671875 6.582031 -5.035156 6.570312 -5.328125 C 6.503906 -6.550781 5.800781 -7.324219 4.042969 -7.414062 C 2.410156 -7.492188 1.261719 -6.640625 1.074219 -5.066406 L 2.328125 -5.007812 C 2.464844 -6.019531 2.992188 -6.539062 3.996094 -6.492188 C 4.988281 -6.441406 5.355469 -5.976562 5.378906 -5.289062 C 5.394531 -5.011719 5.378906 -4.714844 5.363281 -4.394531 L 5.355469 -4.199219 L 4.878906 -4.222656 C 1.976562 -4.367188 0.679688 -3.5625 0.597656 -1.886719 C 0.527344 -0.519531 1.539062 0.269531 2.878906 0.335938 C 3.589844 0.371094 4.238281 0.292969 4.757812 -0.03125 L 5.203125 -0.808594 Z M 3.328125 -0.5625 C 2.421875 -0.609375 1.867188 -1.027344 1.914062 -1.921875 C 1.976562 -3.191406 3.28125 -3.558594 5.308594 -3.308594 L 5.273438 -2.554688 C 5.207031 -1.214844 4.445312 -0.507812 3.328125 -0.5625 Z M 3.328125 -0.5625 "/></g></g></g><g fill="#000000" fill-opacity="1"><g transform="translate(188.245463, 252.341102)"><g><path d="M 6.777344 -10.761719 L 5.578125 -10.679688 L 5.847656 -6.804688 L 5.308594 -7.496094 C 4.910156 -7.777344 4.117188 -7.902344 3.503906 -7.863281 C 1.59375 -7.730469 -0.0195312 -6.34375 0.171875 -3.609375 C 0.320312 -1.449219 1.628906 0.0820312 3.792969 -0.0664062 C 4.542969 -0.117188 5.308594 -0.410156 5.703125 -0.785156 L 6.203125 -1.621094 L 6.285156 -0.433594 L 7.484375 -0.515625 Z M 3.910156 -1 C 2.429688 -0.894531 1.585938 -2.167969 1.472656 -3.839844 C 1.335938 -5.777344 2.273438 -6.851562 3.566406 -6.941406 C 4.628906 -7.015625 5.875 -6.371094 6.007812 -4.464844 L 6.035156 -4.058594 C 6.183594 -1.941406 5.136719 -1.082031 3.910156 -1 Z M 3.910156 -1 "/></g></g></g><g fill="#000000" fill-opacity="1"><g transform="translate(197.798055, 251.51428)"><g/></g></g><g fill="#000000" fill-opacity="1"><g transform="translate(201.918068, 251.056957)"><g><path d="M 8.054688 -12.21875 L 6.183594 -11.703125 L 5.738281 -2.636719 L 0.699219 -10.191406 L -1.210938 -9.667969 L 1.347656 -0.371094 L 2.503906 -0.691406 L 1.1875 -5.472656 C 0.875 -6.617188 0.519531 -7.898438 0.214844 -8.898438 C 0.785156 -7.984375 1.574219 -6.808594 2.253906 -5.808594 L 5.253906 -1.445312 L 6.707031 -1.847656 L 7.03125 -7.09375 C 7.109375 -8.335938 7.183594 -9.761719 7.214844 -10.855469 C 7.464844 -9.835938 7.820312 -8.542969 8.140625 -7.386719 L 9.457031 -2.605469 L 10.617188 -2.921875 Z M 8.054688 -12.21875 "/></g></g></g><g fill="#000000" fill-opacity="1"><g transform="translate(214.704915, 247.271487)"><g><path d="M 4.84375 -2.109375 L 5.945312 -2.589844 C 5.511719 -3.300781 5.285156 -3.75 5.0625 -4.261719 L 3.953125 -6.8125 C 3.824219 -7.105469 3.667969 -7.433594 3.523438 -7.691406 C 2.925781 -8.753906 1.949219 -9.140625 0.335938 -8.4375 C -1.164062 -7.785156 -1.8125 -6.511719 -1.285156 -5.019531 L -0.132812 -5.519531 C -0.460938 -6.488281 -0.21875 -7.1875 0.703125 -7.589844 C 1.613281 -7.988281 2.148438 -7.734375 2.472656 -7.128906 C 2.613281 -6.882812 2.730469 -6.613281 2.855469 -6.320312 L 2.933594 -6.140625 L 2.5 -5.949219 C -0.164062 -4.789062 -0.972656 -3.492188 -0.304688 -1.957031 C 0.242188 -0.699219 1.5 -0.441406 2.730469 -0.976562 C 3.382812 -1.257812 3.929688 -1.617188 4.25 -2.140625 L 4.304688 -3.03125 Z M 2.734375 -1.984375 C 1.902344 -1.621094 1.21875 -1.75 0.863281 -2.570312 C 0.355469 -3.734375 1.359375 -4.644531 3.292969 -5.320312 L 3.59375 -4.628906 C 4.128906 -3.398438 3.757812 -2.429688 2.734375 -1.984375 Z M 2.734375 -1.984375 "/></g></g></g><g fill="#000000" fill-opacity="1"><g transform="translate(222.45353, 243.812248)"><g><path d="M -0.960938 -8.183594 C -2.285156 -7.4375 -2.789062 -6.222656 -2.125 -5.042969 C -1.484375 -3.910156 -0.292969 -3.957031 1.042969 -4.292969 C 2.289062 -4.613281 2.914062 -4.53125 3.265625 -3.910156 C 3.613281 -3.289062 3.234375 -2.65625 2.539062 -2.265625 C 1.796875 -1.847656 1.015625 -1.839844 0.316406 -2.679688 L -0.777344 -2.0625 C 0.238281 -0.710938 1.59375 -0.675781 2.917969 -1.421875 C 4.28125 -2.191406 4.972656 -3.382812 4.285156 -4.601562 C 3.667969 -5.695312 2.632812 -5.882812 0.929688 -5.433594 C -0.078125 -5.171875 -0.757812 -5.125 -1.121094 -5.769531 C -1.4375 -6.328125 -1.324219 -6.921875 -0.59375 -7.335938 C 0.164062 -7.761719 0.878906 -7.570312 1.449219 -6.898438 L 2.546875 -7.515625 C 1.746094 -8.621094 0.488281 -9.003906 -0.960938 -8.183594 Z M -0.960938 -8.183594 "/></g></g></g><g fill="#000000" fill-opacity="1"><g transform="translate(228.918119, 240.108265)"><g><path d="M -1.742188 -8.054688 C -2.992188 -7.183594 -3.375 -5.925781 -2.597656 -4.816406 C -1.851562 -3.75 -0.671875 -3.910156 0.625 -4.375 C 1.835938 -4.8125 2.464844 -4.789062 2.875 -4.207031 C 3.28125 -3.621094 2.960938 -2.957031 2.308594 -2.5 C 1.609375 -2.011719 0.832031 -1.929688 0.0585938 -2.699219 L -0.972656 -1.980469 C 0.171875 -0.734375 1.519531 -0.824219 2.769531 -1.695312 C 4.050781 -2.59375 4.625 -3.84375 3.824219 -4.992188 C 3.105469 -6.023438 2.058594 -6.105469 0.402344 -5.496094 C -0.574219 -5.140625 -1.246094 -5.027344 -1.667969 -5.632812 C -2.039062 -6.160156 -1.980469 -6.761719 -1.292969 -7.242188 C -0.582031 -7.738281 0.148438 -7.621094 0.78125 -7.003906 L 1.8125 -7.726562 C 0.910156 -8.75 -0.378906 -9.007812 -1.742188 -8.054688 Z M -1.742188 -8.054688 "/></g></g></g><g fill="#000000" fill-opacity="1"><g transform="translate(235.034387, 235.796064)"><g><path d="M 3.996094 -3.453125 L 4.90625 -4.238281 C 4.28125 -4.789062 3.929688 -5.152344 3.566406 -5.574219 L 1.746094 -7.679688 C 1.535156 -7.921875 1.289062 -8.1875 1.074219 -8.390625 C 0.183594 -9.230469 -0.859375 -9.304688 -2.191406 -8.152344 C -3.429688 -7.085938 -3.667969 -5.675781 -2.722656 -4.40625 L -1.769531 -5.230469 C -2.375 -6.058594 -2.347656 -6.796875 -1.589844 -7.457031 C -0.835938 -8.105469 -0.25 -8.023438 0.242188 -7.539062 C 0.445312 -7.347656 0.636719 -7.125 0.847656 -6.882812 L 0.976562 -6.734375 L 0.617188 -6.425781 C -1.582031 -4.523438 -1.96875 -3.046875 -0.871094 -1.777344 C 0.0234375 -0.742188 1.300781 -0.867188 2.316406 -1.742188 C 2.855469 -2.210938 3.269531 -2.714844 3.421875 -3.308594 L 3.207031 -4.175781 Z M 2.019531 -2.707031 C 1.332031 -2.113281 0.644531 -2.035156 0.0585938 -2.710938 C -0.773438 -3.671875 -0.0859375 -4.839844 1.558594 -6.058594 L 2.054688 -5.488281 C 2.929688 -4.472656 2.863281 -3.4375 2.019531 -2.707031 Z M 2.019531 -2.707031 "/></g></g></g><g fill="#000000" fill-opacity="1"><g transform="translate(241.487839, 230.179133)"><g><path d="M -0.410156 -10.535156 L -1.21875 -9.648438 L -0.464844 -8.960938 L -1.332031 -9.089844 C -1.8125 -9.015625 -2.476562 -8.5625 -2.890625 -8.105469 C -4.179688 -6.695312 -4.390625 -4.578125 -2.371094 -2.730469 C -0.769531 -1.269531 1.238281 -1.066406 2.699219 -2.664062 C 3.207031 -3.222656 3.558594 -3.960938 3.582031 -4.503906 L 3.371094 -5.453125 L 3.464844 -5.371094 C 3.628906 -5.21875 3.804688 -5.058594 4.054688 -4.8125 C 5.070312 -3.8125 5.152344 -2.65625 4.160156 -1.574219 C 3.304688 -0.632812 2.351562 -0.523438 1.613281 -1.0625 L 1.511719 -1.136719 L 0.691406 -0.238281 L 0.804688 -0.15625 C 2.0625 0.785156 3.417969 0.605469 4.84375 -0.953125 C 6.285156 -2.53125 6.324219 -4.273438 4.769531 -5.785156 C 4.480469 -6.070312 4.058594 -6.453125 3.71875 -6.765625 Z M 2.140625 -3.421875 C 1.140625 -2.328125 -0.347656 -2.664062 -1.585938 -3.796875 C -3.019531 -5.105469 -3.085938 -6.527344 -2.210938 -7.484375 C -1.492188 -8.269531 -0.148438 -8.667969 1.265625 -7.375 L 1.566406 -7.101562 C 3.132812 -5.671875 2.96875 -4.328125 2.140625 -3.421875 Z M 2.140625 -3.421875 "/></g></g></g><g fill="#000000" fill-opacity="1"><g transform="translate(247.980151, 222.924696)"><g><path d="M 0.949219 -8.0625 C -0.8125 -9.320312 -2.707031 -9.285156 -3.894531 -7.625 C -5.070312 -5.976562 -4.703125 -3.875 -2.746094 -2.476562 C -0.621094 -0.957031 1.238281 -1.398438 2.359375 -2.96875 C 3.246094 -4.207031 3.417969 -5.816406 2.132812 -7.097656 L 1.402344 -6.074219 C 2.167969 -5.320312 2.203125 -4.332031 1.640625 -3.550781 C 1.007812 -2.660156 -0.0625 -2.292969 -1.71875 -3.339844 L 1.402344 -7.707031 C 1.199219 -7.882812 1.042969 -7.996094 0.949219 -8.0625 Z M -3.160156 -7.066406 C -2.453125 -8.054688 -1.355469 -8.078125 -0.0390625 -7.273438 L -2.460938 -3.886719 C -3.664062 -4.917969 -3.84375 -6.109375 -3.160156 -7.066406 Z M -3.160156 -7.066406 "/></g></g></g><g fill="#000000" fill-opacity="1"><g transform="translate(152.195695, 118.598678)"><g><path d="M 6.164062 -6.132812 C 5.617188 -7.011719 4.835938 -7.667969 3.914062 -7.640625 C 4.632812 -8.335938 5.070312 -9.425781 4.457031 -10.636719 C 3.679688 -12.183594 2.351562 -12.429688 0.929688 -11.933594 C 0.492188 -11.777344 0.171875 -11.617188 -0.292969 -11.378906 L -3.304688 -9.863281 L 1.332031 -0.671875 L 2.476562 -1.25 L 0.480469 -5.207031 L 2.214844 -6.078125 C 2.425781 -6.1875 2.652344 -6.300781 2.871094 -6.394531 C 3.8125 -6.785156 4.488281 -6.339844 5.070312 -5.449219 C 5.761719 -4.375 6.175781 -3.851562 6.726562 -3.394531 L 7.992188 -4.03125 C 7.371094 -4.335938 6.875 -4.988281 6.164062 -6.132812 Z M 0.0117188 -6.136719 L -1.6875 -9.507812 L 0.175781 -10.449219 C 0.589844 -10.65625 0.847656 -10.769531 1.121094 -10.859375 C 2.042969 -11.15625 2.769531 -10.9375 3.285156 -9.910156 C 3.8125 -8.875 3.460938 -8.011719 2.648438 -7.5 C 2.410156 -7.347656 2.183594 -7.234375 1.769531 -7.023438 Z M 0.0117188 -6.136719 "/></g></g></g><g fill="#000000" fill-opacity="1"><g transform="translate(159.966387, 114.678193)"><g><path d="M 5.699219 -6.527344 C 4.90625 -8.699219 3.214844 -9.8125 1.167969 -9.066406 C -0.863281 -8.324219 -1.804688 -6.25 -0.925781 -3.839844 C 0.03125 -1.21875 1.933594 -0.484375 3.867188 -1.191406 C 5.394531 -1.75 6.519531 -3.0625 6.160156 -4.964844 L 4.898438 -4.503906 C 5.117188 -3.378906 4.554688 -2.488281 3.585938 -2.136719 C 2.496094 -1.738281 1.328125 -2.058594 0.5 -3.976562 L 5.882812 -5.945312 C 5.8125 -6.21875 5.738281 -6.417969 5.699219 -6.527344 Z M 1.476562 -8.128906 C 2.695312 -8.574219 3.675781 -7.933594 4.351562 -6.433594 L 0.175781 -4.910156 C -0.261719 -6.542969 0.300781 -7.699219 1.476562 -8.128906 Z M 1.476562 -8.128906 "/></g></g></g><g fill="#000000" fill-opacity="1"><g transform="translate(167.316604, 112.061517)"><g><path d="M -0.078125 -9.75 C -0.144531 -10.398438 0.414062 -10.78125 1.398438 -10.863281 L 1.121094 -11.886719 C 0.847656 -11.859375 0.539062 -11.804688 0.222656 -11.71875 C -0.914062 -11.410156 -1.496094 -10.585938 -1.320312 -9.441406 C -1.28125 -9.175781 -1.191406 -8.796875 -1.113281 -8.507812 L -0.941406 -7.875 L -1.761719 -7.652344 L -1.503906 -6.703125 L -0.683594 -6.925781 L 1.121094 -0.304688 L 2.359375 -0.644531 L 0.554688 -7.265625 L 2.125 -7.691406 L 1.863281 -8.640625 L 0.296875 -8.214844 L 0.09375 -8.960938 C 0.0351562 -9.179688 -0.0507812 -9.542969 -0.078125 -9.75 Z M -0.078125 -9.75 "/></g></g></g><g fill="#000000" fill-opacity="1"><g transform="translate(171.252383, 110.991489)"><g><path d="M -0.0351562 -11.207031 L -1.289062 -10.9375 L 0.550781 -2.394531 C 0.644531 -1.96875 0.714844 -1.632812 0.785156 -1.375 C 1.042969 -0.40625 1.632812 -0.289062 2.359375 -0.449219 C 2.652344 -0.511719 2.96875 -0.59375 3.238281 -0.699219 L 3.042969 -1.601562 C 2.371094 -1.382812 2.105469 -1.492188 1.96875 -1.980469 C 1.902344 -2.226562 1.847656 -2.472656 1.796875 -2.707031 Z M -0.0351562 -11.207031 "/></g></g></g><g fill="#000000" fill-opacity="1"><g transform="translate(174.481592, 110.188333)"><g><path d="M 6.972656 -5.144531 C 6.667969 -7.4375 5.253906 -8.886719 3.097656 -8.601562 C 0.953125 -8.3125 -0.414062 -6.492188 -0.0742188 -3.949219 C 0.292969 -1.183594 1.996094 -0.0546875 4.035156 -0.328125 C 5.644531 -0.542969 7.027344 -1.585938 7.085938 -3.519531 L 5.753906 -3.339844 C 5.726562 -2.195312 4.984375 -1.449219 3.964844 -1.3125 C 2.808594 -1.15625 1.742188 -1.722656 1.347656 -3.777344 L 7.023438 -4.535156 C 7.015625 -4.820312 6.988281 -5.027344 6.972656 -5.144531 Z M 3.195312 -7.621094 C 4.484375 -7.792969 5.304688 -6.953125 5.636719 -5.34375 L 1.230469 -4.753906 C 1.15625 -6.445312 1.957031 -7.453125 3.195312 -7.621094 Z M 3.195312 -7.621094 "/></g></g></g><g fill="#000000" fill-opacity="1"><g transform="translate(182.133696, 109.168933)"><g><path d="M 4.085938 -4.148438 L 6.746094 -8.109375 L 5.269531 -8.0625 L 3.375 -4.949219 L 1.304688 -7.949219 L -0.21875 -7.902344 L 2.625 -4.078125 L -0.0898438 0.00390625 L 1.386719 -0.0390625 L 3.351562 -3.277344 L 5.515625 -0.160156 L 7.007812 -0.207031 Z M 4.085938 -4.148438 "/></g></g></g><g fill="#000000" fill-opacity="1"><g transform="translate(188.837308, 108.904652)"><g><path d="M 4.988281 -7.75 C 2.308594 -7.960938 0.925781 -6.136719 0.753906 -3.90625 C 0.582031 -1.691406 1.664062 0.339844 4.339844 0.546875 C 7.019531 0.753906 8.402344 -1.082031 8.574219 -3.296875 C 8.75 -5.527344 7.664062 -7.542969 4.988281 -7.75 Z M 4.417969 -0.433594 C 2.828125 -0.558594 2.007812 -1.953125 2.152344 -3.796875 C 2.296875 -5.65625 3.320312 -6.894531 4.910156 -6.769531 C 6.503906 -6.644531 7.324219 -5.265625 7.175781 -3.40625 C 7.035156 -1.5625 6.007812 -0.3125 4.417969 -0.433594 Z M 4.417969 -0.433594 "/></g></g></g><g fill="#000000" fill-opacity="1"><g transform="translate(197.160068, 109.641473)"><g><path d="M 4.054688 -10.449219 L 2.789062 -10.65625 L 1.386719 -2.027344 C 1.316406 -1.597656 1.261719 -1.261719 1.234375 -0.992188 C 1.117188 0 1.625 0.324219 2.359375 0.445312 C 2.65625 0.492188 2.980469 0.53125 3.269531 0.53125 L 3.417969 -0.382812 C 2.714844 -0.421875 2.503906 -0.621094 2.554688 -1.125 C 2.582031 -1.378906 2.621094 -1.628906 2.660156 -1.863281 Z M 4.054688 -10.449219 "/></g></g></g><g fill="#000000" fill-opacity="1"><g transform="translate(200.447054, 110.052879)"><g><path d="M 6.207031 -6.816406 C 3.601562 -7.464844 1.933594 -5.898438 1.390625 -3.726562 C 0.851562 -1.570312 1.585938 0.609375 4.191406 1.261719 C 6.796875 1.910156 8.464844 0.328125 9.003906 -1.828125 C 9.546875 -4 8.8125 -6.164062 6.207031 -6.816406 Z M 4.429688 0.304688 C 2.878906 -0.0820312 2.304688 -1.59375 2.75 -3.386719 C 3.203125 -5.195312 4.417969 -6.246094 5.96875 -5.859375 C 7.515625 -5.472656 8.09375 -3.976562 7.644531 -2.167969 C 7.195312 -0.371094 5.976562 0.691406 4.429688 0.304688 Z M 4.429688 0.304688 "/></g></g></g><g fill="#000000" fill-opacity="1"><g transform="translate(208.414478, 111.993576)"><g><path d="M 10.304688 -4.527344 L 9.105469 -4.984375 L 8.71875 -3.96875 L 8.507812 -4.878906 C 8.246094 -5.328125 7.535156 -5.808594 6.921875 -6.042969 C 5.011719 -6.773438 2.828125 -6.152344 1.785156 -3.421875 C 0.960938 -1.261719 1.542969 0.8125 3.703125 1.636719 C 4.453125 1.925781 5.324219 1.984375 5.875 1.796875 L 6.738281 1.214844 L 6.691406 1.339844 C 6.605469 1.5625 6.515625 1.800781 6.367188 2.144531 C 5.769531 3.542969 4.65625 4.078125 3.191406 3.519531 C 1.921875 3.035156 1.4375 2.128906 1.6875 1.1875 L 1.71875 1.054688 L 0.507812 0.59375 L 0.46875 0.738281 C 0.0273438 2.355469 0.734375 3.632812 2.839844 4.4375 C 4.972656 5.253906 6.71875 4.609375 7.613281 2.476562 C 7.78125 2.078125 8 1.507812 8.175781 1.046875 Z M 4.234375 0.785156 C 2.757812 0.222656 2.511719 -1.386719 3.148438 -3.0625 C 3.890625 -4.996094 5.277344 -5.617188 6.570312 -5.125 C 7.628906 -4.71875 8.550781 -3.535156 7.824219 -1.628906 L 7.667969 -1.222656 C 6.859375 0.894531 5.460938 1.253906 4.234375 0.785156 Z M 4.234375 0.785156 "/></g></g></g><g fill="#000000" fill-opacity="1"><g transform="translate(216.499933, 115.097216)"><g><path d="M 10.351562 -3.542969 L 9.105469 -4.1875 L 3.832031 0.910156 L 4.933594 -6.347656 L 3.648438 -7.015625 L 2.625 1.8125 L 2.398438 2.015625 C 1.5625 2.757812 0.941406 2.820312 0.238281 2.457031 C 0.121094 2.398438 0 2.335938 -0.164062 2.234375 L -0.644531 3.160156 C -0.488281 3.277344 -0.328125 3.359375 -0.0742188 3.488281 C 1.0625 4.078125 2.183594 3.765625 3.519531 2.578125 Z M 10.351562 -3.542969 "/></g></g></g></svg>